<?xml version="1.0" encoding="us-ascii" standalone="no"?><svg xmlns="http://www.w3.org/2000/svg" xmlns:xlink="http://www.w3.org/1999/xlink" contentStyleType="text/css" height="465px" preserveAspectRatio="none" style="width:3321px;height:465px;background:#FFFFFF;" version="1.1" viewBox="0 0 3321 465" width="3321px" zoomAndPan="magnify"><defs/><g><!--cluster ATM--><g id="cluster_ATM"><path d="M19.5,7 L2720.5,7 A12.5,12.5 0 0 1 2733,19.5 L2733,28.4883 L7,28.4883 L7,19.5 A12.5,12.5 0 0 1 19.5,7 " fill="#F1F1F1" style="stroke:#F1F1F1;stroke-width:1.0;"/><rect fill="none" height="452.36" rx="12.5" ry="12.5" style="stroke:#181818;stroke-width:0.5;" width="2726" x="7" y="7"/><line style="stroke:#181818;stroke-width:0.5;" x1="7" x2="2733" y1="28.4883" y2="28.4883"/><text fill="#000000" font-family="sans-serif" font-size="14" lengthAdjust="spacing" textLength="31" x="1354.5" y="24.5352">ATM</text></g><!--cluster Idle--><g id="cluster_Idle"><path d="M51.5,58 L2660.5,58 A12.5,12.5 0 0 1 2673,70.5 L2673,79.4883 L39,79.4883 L39,70.5 A12.5,12.5 0 0 1 51.5,58 " fill="#90EE90" style="stroke:#90EE90;stroke-width:1.0;"/><rect fill="none" height="369.36" rx="12.5" ry="12.5" style="stroke:#181818;stroke-width:0.5;" width="2634" x="39" y="58"/><line style="stroke:#181818;stroke-width:0.5;" x1="39" x2="2673" y1="79.4883" y2="79.4883"/><text fill="#000000" font-family="sans-serif" font-size="14" lengthAdjust="spacing" textLength="25" x="1332" y="75.5352">Idle</text></g><!--cluster ReadingCard--><g id="cluster_ReadingCard"><path d="M91.5,133 L216.5,133 A12.5,12.5 0 0 1 229,145.5 L229,154.4883 L79,154.4883 L79,145.5 A12.5,12.5 0 0 1 91.5,133 " fill="#90EE90" style="stroke:#90EE90;stroke-width:1.0;"/><rect fill="none" height="254.36" rx="12.5" ry="12.5" style="stroke:#181818;stroke-width:0.5;" width="150" x="79" y="133"/><line style="stroke:#181818;stroke-width:0.5;" x1="79" x2="229" y1="154.4883" y2="154.4883"/><text fill="#000000" font-family="sans-serif" font-size="14" lengthAdjust="spacing" textLength="89" x="109.5" y="150.5352">ReadingCard</text></g><!--cluster Inputting--><g id="cluster_Inputting"><path d="M281.5,133 L432.5,133 A12.5,12.5 0 0 1 445,145.5 L445,154.4883 L269,154.4883 L269,145.5 A12.5,12.5 0 0 1 281.5,133 " fill="#90EE90" style="stroke:#90EE90;stroke-width:1.0;"/><rect fill="none" height="254.36" rx="12.5" ry="12.5" style="stroke:#181818;stroke-width:0.5;" width="176" x="269" y="133"/><line style="stroke:#181818;stroke-width:0.5;" x1="269" x2="445" y1="154.4883" y2="154.4883"/><text fill="#000000" font-family="sans-serif" font-size="14" lengthAdjust="spacing" textLength="63" x="325.5" y="150.5352">Inputting</text></g><!--cluster CardReader--><g id="cluster_CardReader"><path d="M2769.5,147.36 L2841.5,147.36 A12.5,12.5 0 0 1 2854,159.86 L2854,168.8483 L2757,168.8483 L2757,159.86 A12.5,12.5 0 0 1 2769.5,147.36 " fill="#F1F1F1" style="stroke:#F1F1F1;stroke-width:1.0;"/><rect fill="none" height="90" rx="12.5" ry="12.5" style="stroke:#181818;stroke-width:0.5;" width="97" x="2757" y="147.36"/><line style="stroke:#181818;stroke-width:0.5;" x1="2757" x2="2854" y1="168.8483" y2="168.8483"/><text fill="#000000" font-family="sans-serif" font-size="14" lengthAdjust="spacing" textLength="81" x="2765" y="164.8952">CardReader</text></g><!--cluster Keypad--><g id="cluster_Keypad"><path d="M2890.5,147.36 L2931.5,147.36 A12.5,12.5 0 0 1 2944,159.86 L2944,168.8483 L2878,168.8483 L2878,159.86 A12.5,12.5 0 0 1 2890.5,147.36 " fill="#F1F1F1" style="stroke:#F1F1F1;stroke-width:1.0;"/><rect fill="none" height="90" rx="12.5" ry="12.5" style="stroke:#181818;stroke-width:0.5;" width="66" x="2878" y="147.36"/><line style="stroke:#181818;stroke-width:0.5;" x1="2878" x2="2944" y1="168.8483" y2="168.8483"/><text fill="#000000" font-family="sans-serif" font-size="14" lengthAdjust="spacing" textLength="50" x="2886" y="164.8952">Keypad</text></g><!--cluster Screen--><g id="cluster_Screen"><path d="M2980.5,147.36 L3017.5,147.36 A12.5,12.5 0 0 1 3030,159.86 L3030,168.8483 L2968,168.8483 L2968,159.86 A12.5,12.5 0 0 1 2980.5,147.36 " fill="#F1F1F1" style="stroke:#F1F1F1;stroke-width:1.0;"/><rect fill="none" height="90" rx="12.5" ry="12.5" style="stroke:#181818;stroke-width:0.5;" width="62" x="2968" y="147.36"/><line style="stroke:#181818;stroke-width:0.5;" x1="2968" x2="3030" y1="168.8483" y2="168.8483"/><text fill="#000000" font-family="sans-serif" font-size="14" lengthAdjust="spacing" textLength="46" x="2976" y="164.8952">Screen</text></g><!--cluster CashDispenser--><g id="cluster_CashDispenser"><path d="M3066.5,147.36 L3159.5,147.36 A12.5,12.5 0 0 1 3172,159.86 L3172,168.8483 L3054,168.8483 L3054,159.86 A12.5,12.5 0 0 1 3066.5,147.36 " fill="#F1F1F1" style="stroke:#F1F1F1;stroke-width:1.0;"/><rect fill="none" height="90" rx="12.5" ry="12.5" style="stroke:#181818;stroke-width:0.5;" width="118" x="3054" y="147.36"/><line style="stroke:#181818;stroke-width:0.5;" x1="3054" x2="3172" y1="168.8483" y2="168.8483"/><text fill="#000000" font-family="sans-serif" font-size="14" lengthAdjust="spacing" textLength="102" x="3062" y="164.8952">CashDispenser</text></g><!--cluster ReceiptPrinter--><g id="cluster_ReceiptPrinter"><path d="M3208.5,147.36 L3295.5,147.36 A12.5,12.5 0 0 1 3308,159.86 L3308,168.8483 L3196,168.8483 L3196,159.86 A12.5,12.5 0 0 1 3208.5,147.36 " fill="#F1F1F1" style="stroke:#F1F1F1;stroke-width:1.0;"/><rect fill="none" height="90" rx="12.5" ry="12.5" style="stroke:#181818;stroke-width:0.5;" width="112" x="3196" y="147.36"/><line style="stroke:#181818;stroke-width:0.5;" x1="3196" x2="3308" y1="168.8483" y2="168.8483"/><text fill="#000000" font-family="sans-serif" font-size="14" lengthAdjust="spacing" textLength="96" x="3204" y="164.8952">ReceiptPrinter</text></g><ellipse cx="2707" cy="211.36" fill="#222222" rx="10" ry="10" style="stroke:#222222;stroke-width:1.0;"/><g id="ATM.Idle.Processing"><rect fill="#90EE90" height="50" rx="12.5" ry="12.5" style="stroke:#181818;stroke-width:0.5;" width="94" x="469" y="186.36"/><line style="stroke:#181818;stroke-width:0.5;" x1="469" x2="563" y1="212.8483" y2="212.8483"/><text fill="#000000" font-family="sans-serif" font-size="14" lengthAdjust="spacing" textLength="74" x="479" y="204.8952">Processing</text></g><g id="ATM.Idle.OutOfService"><rect fill="#90EE90" height="50" rx="12.5" ry="12.5" style="stroke:#181818;stroke-width:0.5;" width="109" x="877.5" y="313.36"/><line style="stroke:#181818;stroke-width:0.5;" x1="877.5" x2="986.5" y1="339.8483" y2="339.8483"/><text fill="#000000" font-family="sans-serif" font-size="14" lengthAdjust="spacing" textLength="89" x="887.5" y="331.8952">OutOfService</text></g><g id="ATM.Idle.DisplayingMenu"><rect fill="#90EE90" height="50" rx="12.5" ry="12.5" style="stroke:#181818;stroke-width:0.5;" width="129" x="598.5" y="186.36"/><line style="stroke:#181818;stroke-width:0.5;" x1="598.5" x2="727.5" y1="212.8483" y2="212.8483"/><text fill="#000000" font-family="sans-serif" font-size="14" lengthAdjust="spacing" textLength="109" x="608.5" y="204.8952">DisplayingMenu</text></g><g id="ATM.Idle.DisplayingError"><rect fill="#90EE90" height="50" rx="12.5" ry="12.5" style="stroke:#181818;stroke-width:0.5;" width="126" x="1106" y="313.36"/><line style="stroke:#181818;stroke-width:0.5;" x1="1106" x2="1232" y1="339.8483" y2="339.8483"/><text fill="#000000" font-family="sans-serif" font-size="14" lengthAdjust="spacing" textLength="106" x="1116" y="331.8952">DisplayingError</text></g><g id="ATM.Idle.DispensingCash"><rect fill="#90EE90" height="50" rx="12.5" ry="12.5" style="stroke:#181818;stroke-width:0.5;" width="130" x="763" y="186.36"/><line style="stroke:#181818;stroke-width:0.5;" x1="763" x2="893" y1="212.8483" y2="212.8483"/><text fill="#000000" font-family="sans-serif" font-size="14" lengthAdjust="spacing" textLength="110" x="773" y="204.8952">DispensingCash</text></g><g id="ATM.Idle.OutOfCash"><rect fill="#90EE90" height="50" rx="12.5" ry="12.5" style="stroke:#181818;stroke-width:0.5;" width="95" x="928.5" y="186.36"/><line style="stroke:#181818;stroke-width:0.5;" x1="928.5" x2="1023.5" y1="212.8483" y2="212.8483"/><text fill="#000000" font-family="sans-serif" font-size="14" lengthAdjust="spacing" textLength="75" x="938.5" y="204.8952">OutOfCash</text></g><g id="ATM.Idle.PrintingReceipt"><rect fill="#90EE90" height="50" rx="12.5" ry="12.5" style="stroke:#181818;stroke-width:0.5;" width="124" x="1058" y="186.36"/><line style="stroke:#181818;stroke-width:0.5;" x1="1058" x2="1182" y1="212.8483" y2="212.8483"/><text fill="#000000" font-family="sans-serif" font-size="14" lengthAdjust="spacing" textLength="104" x="1068" y="204.8952">PrintingReceipt</text></g><g id="ATM.Idle.OutOfPaper"><rect fill="#90EE90" height="50" rx="12.5" ry="12.5" style="stroke:#181818;stroke-width:0.5;" width="100" x="1217" y="186.36"/><line style="stroke:#181818;stroke-width:0.5;" x1="1217" x2="1317" y1="212.8483" y2="212.8483"/><text fill="#000000" font-family="sans-serif" font-size="14" lengthAdjust="spacing" textLength="80" x="1227" y="204.8952">OutOfPaper</text></g><g id="ATM.Idle.ReadingCard.CardEjected"><rect fill="#90EE90" height="50" rx="12.5" ry="12.5" style="stroke:#181818;stroke-width:0.5;" width="102" x="103" y="313.36"/><line style="stroke:#181818;stroke-width:0.5;" x1="103" x2="205" y1="339.8483" y2="339.8483"/><text fill="#000000" font-family="sans-serif" font-size="14" lengthAdjust="spacing" textLength="82" x="113" y="331.8952">CardEjected</text></g><g id="ATM.Idle.Inputting.Locked"><rect fill="#90EE90" height="50" rx="12.5" ry="12.5" style="stroke:#181818;stroke-width:0.5;" width="68" x="353" y="313.36"/><line style="stroke:#181818;stroke-width:0.5;" x1="353" x2="421" y1="339.8483" y2="339.8483"/><text fill="#000000" font-family="sans-serif" font-size="14" lengthAdjust="spacing" textLength="48" x="363" y="331.8952">Locked</text></g><ellipse cx="2783" cy="211.36" fill="#222222" rx="10" ry="10" style="stroke:#222222;stroke-width:1.0;"/><ellipse cx="2904" cy="211.36" fill="#222222" rx="10" ry="10" style="stroke:#222222;stroke-width:1.0;"/><ellipse cx="2994" cy="211.36" fill="#222222" rx="10" ry="10" style="stroke:#222222;stroke-width:1.0;"/><ellipse cx="3080" cy="211.36" fill="#222222" rx="10" ry="10" style="stroke:#222222;stroke-width:1.0;"/><ellipse cx="3222" cy="211.36" fill="#222222" rx="10" ry="10" style="stroke:#222222;stroke-width:1.0;"/><!--link *start*ATM to Idle--><g id="link_*start*ATM_Idle"><path d="M2700.74,219.03 C2697.15,222.73 2692.1375,227.7156 2686.0247,233.3341 C2682.9683,236.1433 2679.6368,239.1107 2676.0705,242.1547 C2675.1789,242.9157 2674.2727,243.6815 2673.3524,244.4508 C2673.2374,244.547 2677.7306,240.8011 2677.6151,240.8974 " fill="none" id="*start*ATM-to-Idle" style="stroke:#181818;stroke-width:1.0;"/><polygon fill="#181818" points="2673.0066,244.7395,2682.4808,242.0487,2676.847,241.5377,2677.358,235.904,2673.0066,244.7395" style="stroke:#181818;stroke-width:1.0;"/></g><!--link Idle to Processing--><g id="link_Idle_Processing"><path d="M1719.94,337.34 C1717.23,336.59 1630.21,312.2 1564,283.36 C1549.24,276.93 1547.58,270.43 1532,266.36 C1327.46,213 786.02,296.82 581,245.36 C573.02,243.36 570.3505,242.7485 562.6805,239.2185 " fill="none" id="Idle-to-Processing" style="stroke:#181818;stroke-width:1.0;"/><polygon fill="#181818" points="557.23,236.71,563.7334,244.1064,561.772,238.8004,567.078,236.8391,557.23,236.71" style="stroke:#181818;stroke-width:1.0;"/><text fill="#000000" font-family="sans-serif" font-size="13" lengthAdjust="spacing" textLength="107" x="1565" y="279.9284">Start Transaction</text></g><!--link Processing to Idle--><g id="link_Processing_Idle"><path d="M557.6,236.84 C565.16,240.31 573.15,243.37 581,245.36 C747.13,287.52 1186.27,222.66 1352,266.36 C1367.57,270.47 1368.73,278.24 1384,283.36 C1525.15,330.74 1707.9931,336.9759 1713.8631,337.1659 " fill="none" id="Processing-to-Idle" style="stroke:#181818;stroke-width:1.0;"/><polygon fill="#181818" points="1719.86,337.36,1710.9941,333.0709,1714.8626,337.1982,1710.7353,341.0667,1719.86,337.36" style="stroke:#181818;stroke-width:1.0;"/><text fill="#000000" font-family="sans-serif" font-size="13" lengthAdjust="spacing" textLength="138" x="1385" y="279.9284">Complete Transaction</text></g><!--link Idle to OutOfService--><g id="link_Idle_OutOfService"><path d="M1719.44,338.28 C1704.01,335.94 1371.69,285.92 1102.5,271.36 C1084.53,270.39 1038.58,265.68 1021.5,271.36 C996.64,279.64 977.5275,293.7498 960.8375,309.0898 " fill="none" id="Idle-to-OutOfService" style="stroke:#181818;stroke-width:1.0;"/><polygon fill="#181818" points="956.42,313.15,965.7531,310.0047,960.1013,309.7665,960.3395,304.1146,956.42,313.15" style="stroke:#181818;stroke-width:1.0;"/><text fill="#000000" font-family="sans-serif" font-size="13" lengthAdjust="spacing" textLength="79" x="1022.5" y="279.9284">Maintenance</text></g><!--link OutOfService to Idle--><g id="link_OutOfService_Idle"><path d="M983.54,312.96 C1017.76,297.54 1064.2,279.34 1107.5,271.36 C1239,247.11 1691.8964,332.9952 1713.3264,337.0852 " fill="none" id="OutOfService-to-Idle" style="stroke:#181818;stroke-width:1.0;"/><polygon fill="#181818" points="1719.22,338.21,1711.1294,332.5937,1714.3086,337.2726,1709.6297,340.4518,1719.22,338.21" style="stroke:#181818;stroke-width:1.0;"/><text fill="#000000" font-family="sans-serif" font-size="13" lengthAdjust="spacing" textLength="97" x="1108.5" y="279.9284">Resume Service</text></g><!--link Processing to OutOfService--><g id="link_Processing_OutOfService"><path d="M501.42,236.74 C494.46,251.84 489.83,270.7 501,283.36 C525.54,311.17 760.9499,327.785 871.3799,334.145 " fill="none" id="Processing-to-OutOfService" style="stroke:#181818;stroke-width:1.0;"/><polygon fill="#181818" points="877.37,334.49,868.6149,329.9791,872.3783,334.2025,868.1549,337.9659,877.37,334.49" style="stroke:#181818;stroke-width:1.0;"/><text fill="#000000" font-family="sans-serif" font-size="13" lengthAdjust="spacing" textLength="30" x="502" y="279.9284">Error</text></g><!--link *start*CardReader to Idle--><g id="link_*start*CardReader_Idle"><path d="M2779.16,220.86 C2771.56,236.5 2753,269.51 2726,283.36 C2719.8238,286.5281 2710.545,289.511 2698.5722,292.3194 C2692.5858,293.7235 2685.9259,295.0841 2678.6436,296.4024 C2676.823,296.732 2680.8777,296.0481 2678.9802,296.3724 " fill="none" id="*start*CardReader-to-Idle" style="stroke:#181818;stroke-width:1.0;"/><polygon fill="#181818" points="2673.0659,297.3832,2682.6111,299.8099,2677.9944,296.5409,2681.2634,291.9242,2673.0659,297.3832" style="stroke:#181818;stroke-width:1.0;"/></g><!--link Idle to ReadingCard--><g id="link_Idle_ReadingCard"><path d="M1719.84,337.34 C1713.31,336.46 1502.86,308.3 1333,297.36 C1272.33,293.45 844.8,298.81 786,283.36 C770.42,279.27 769.54,270.59 754,266.36 C648.19,237.59 363.38,284.62 261,245.36 C250.575,241.365 240.865,233.4975 233.6225,226.4463 C232.7172,225.5648 231.8504,224.6962 231.0256,223.8495 C230.6133,223.4261 230.2114,223.0082 229.8204,222.5969 C229.6249,222.3913 229.4321,222.1873 229.2422,221.9851 C229.1947,221.9346 233.2497,226.2626 233.2025,226.2123 " fill="none" id="Idle-to-ReadingCard" style="stroke:#181818;stroke-width:1.0;"/><polygon fill="#181818" points="229.1002,221.8338,232.3347,231.1364,232.5188,225.4826,238.1727,225.6667,229.1002,221.8338" style="stroke:#181818;stroke-width:1.0;"/><text fill="#000000" font-family="sans-serif" font-size="13" lengthAdjust="spacing" textLength="69" x="787" y="279.9284">Insert Card</text></g><!--link ReadingCard to Idle--><g id="link_ReadingCard_Idle"><path d="M229.1112,221.8063 C229.1584,221.8565 229.2058,221.9068 229.2533,221.9572 C229.4435,222.1589 229.6365,222.3624 229.8321,222.5675 C230.2235,222.9778 230.6258,223.3947 231.0386,223.8172 C231.8641,224.662 232.7316,225.5289 233.6375,226.4088 C240.885,233.4475 250.595,241.315 261,245.36 C345.83,278.32 582.28,242.1 670,266.36 C685.52,270.65 686.42,279.29 702,283.36 C769.86,301.07 1263.01,292.97 1333,297.36 C1502.88,308.01 1707.365,335.6397 1713.895,336.5297 " fill="none" id="ReadingCard-to-Idle" style="stroke:#181818;stroke-width:1.0;"/><polygon fill="#181818" points="1719.84,337.34,1711.4626,332.1612,1714.8858,336.6648,1710.3823,340.0879,1719.84,337.34" style="stroke:#181818;stroke-width:1.0;"/><text fill="#000000" font-family="sans-serif" font-size="13" lengthAdjust="spacing" textLength="42" x="703" y="279.9284">Cancel</text></g><!--link ReadingCard to CardEjected--><g id="link_ReadingCard_CardEjected"><path d="M220.95,212.45 C219.51,215.15 188.935,272.192 169.865,307.762 " fill="none" id="ReadingCard-to-CardEjected" style="stroke:#181818;stroke-width:1.0;"/><polygon fill="#181818" points="167.03,313.05,174.8078,307.0081,169.3925,308.6434,167.7572,303.228,167.03,313.05" style="stroke:#181818;stroke-width:1.0;"/><text fill="#000000" font-family="sans-serif" font-size="13" lengthAdjust="spacing" textLength="63" x="192.51" y="279.9284">Eject Card</text></g><!--link CardEjected to Idle--><g id="link_CardEjected_Idle"><path d="M205.22,324.29 C241.67,314.91 291.97,303.27 337,297.36 C337,297.36 1333,297.36 1333,297.36 C1499.82,313.05 1700.6594,336.1333 1713.4194,337.6033 " fill="none" id="CardEjected-to-Idle" style="stroke:#181818;stroke-width:1.0;"/><polygon fill="#181818" points="1719.38,338.29,1710.8969,333.2863,1714.4129,337.7178,1709.9813,341.2337,1719.38,338.29" style="stroke:#181818;stroke-width:1.0;"/><text fill="#000000" font-family="sans-serif" font-size="13" lengthAdjust="spacing" textLength="37" x="978.5" y="279.9284">Ready</text></g><!--link *start*Keypad to Idle--><g id="link_*start*Keypad_Idle"><path d="M2895.91,217.98 C2875.06,232.1 2817.31,268.96 2763,283.36 C2749.0881,287.0475 2732.8909,290.4853 2714.7451,293.6902 C2705.6723,295.2927 2696.1123,296.8369 2686.1073,298.325 C2683.6061,298.697 2681.077,299.0656 2678.5208,299.4306 C2677.2427,299.6131 2681.8999,298.9631 2680.6083,299.1438 " fill="none" id="*start*Keypad-to-Idle" style="stroke:#181818;stroke-width:1.0;"/><polygon fill="#181818" points="2674.6662,299.9756,2684.1338,302.6894,2679.618,299.2825,2683.0249,294.7666,2674.6662,299.9756" style="stroke:#181818;stroke-width:1.0;"/></g><!--link Idle to Inputting--><g id="link_Idle_Inputting"><path d="M1719.84,337.34 C1713.31,336.48 1502.82,308.88 1333,297.36 C1237.39,290.87 995.27,305.35 902,283.36 C884.39,279.21 882.58,270.66 865,266.36 C841.93,260.715 743.8725,263.5575 647.2363,263.765 C598.9181,263.8688 550.9553,263.3138 512.8989,260.7097 C493.8707,259.4077 477.3191,257.5934 464.438,255.093 C457.9974,253.8428 452.4745,252.4211 448.0184,250.8062 C447.4614,250.6043 446.9211,250.3995 446.3977,250.1915 C446.136,250.0875 451.4169,252.2909 451.1637,252.1854 " fill="none" id="Idle-to-Inputting" style="stroke:#181818;stroke-width:1.0;"/><polygon fill="#181818" points="445.6254,249.8773,452.3941,257.0316,450.2406,251.8007,455.4716,249.6472,445.6254,249.8773" style="stroke:#181818;stroke-width:1.0;"/><text fill="#000000" font-family="sans-serif" font-size="13" lengthAdjust="spacing" textLength="66" x="903" y="279.9284">Start Input</text></g><!--link Inputting to Idle--><g id="link_Inputting_Idle"><path d="M445.1195,248.7236 C445.7994,248.9326 446.5192,249.1387 447.2783,249.3419 C448.7966,249.7482 450.4719,250.1428 452.2989,250.526 C459.6068,252.0587 469.3419,253.4091 481.1601,254.5979 C504.7967,256.9756 536.7662,258.7068 574.318,259.9573 C649.4216,262.4584 746.8544,263.0369 844.6112,263.0187 C1040.125,262.9825 1236.935,260.56 1259,266.36 C1274.58,270.45 1275.65,278.5 1291,283.36 C1472.77,340.94 1710.1607,337.5147 1713.9607,337.4547 " fill="none" id="Inputting-to-Idle" style="stroke:#181818;stroke-width:1.0;"/><polygon fill="#181818" points="1719.96,337.36,1710.898,333.5026,1714.9606,337.4389,1711.0243,341.5016,1719.96,337.36" style="stroke:#181818;stroke-width:1.0;"/><text fill="#000000" font-family="sans-serif" font-size="13" lengthAdjust="spacing" textLength="51" x="1292" y="279.9284">Confirm</text></g><!--link Inputting to Locked--><g id="link_Inputting_Locked"><path d="M433.93,212.36 C431.21,212.51 343.84,217.44 312,266.36 C297.13,289.2 320.9926,307.2684 347.1926,320.3584 " fill="none" id="Inputting-to-Locked" style="stroke:#181818;stroke-width:1.0;"/><polygon fill="#181818" points="352.56,323.04,346.2967,315.4393,348.0872,320.8053,342.7212,322.5958,352.56,323.04" style="stroke:#181818;stroke-width:1.0;"/><text fill="#000000" font-family="sans-serif" font-size="13" lengthAdjust="spacing" textLength="123" x="313" y="279.9284">Too Many Attempts</text></g><!--link Locked to Idle--><g id="link_Locked_Idle"><path d="M404.58,313.15 C410.31,306.86 417.23,300.91 425,297.36 C509.24,258.91 1165.64,264.7 1258,271.36 C1458.48,285.82 1698.2295,333.9484 1713.3795,337.0184 " fill="none" id="Locked-to-Idle" style="stroke:#181818;stroke-width:1.0;"/><polygon fill="#181818" points="1719.26,338.21,1711.2337,332.5022,1714.3596,337.217,1709.6449,340.3429,1719.26,338.21" style="stroke:#181818;stroke-width:1.0;"/><text fill="#000000" font-family="sans-serif" font-size="13" lengthAdjust="spacing" textLength="44" x="1213" y="279.9284">Unlock</text></g><!--link *start*Screen to Idle--><g id="link_*start*Screen_Idle"><path d="M2985.52,217.31 C2973.47,224.22 2950.56,236.85 2930,245.36 C2878.7,266.6 2865.63,273.46 2811,283.36 C2781.3775,288.7288 2742.3213,293.5964 2696.6269,298.0047 C2690.9151,298.5557 2685.0996,299.0996 2679.1858,299.6363 C2677.7074,299.7705 2682.199,299.3698 2680.7083,299.5031 " fill="none" id="*start*Screen-to-Idle" style="stroke:#181818;stroke-width:1.0;"/><polygon fill="#181818" points="2674.7322,300.0376,2684.0527,303.22,2679.7123,299.5922,2683.3401,295.2518,2674.7322,300.0376" style="stroke:#181818;stroke-width:1.0;"/></g><!--link Idle to DisplayingMenu--><g id="link_Idle_DisplayingMenu"><path d="M1719.98,337.21 C1719.46,334.12 1710.82,284.46 1681,266.36 C1636.53,239.37 795.95,255.82 745,245.36 C735.23,243.35 730.7628,242.3069 721.1428,238.7769 " fill="none" id="Idle-to-DisplayingMenu" style="stroke:#181818;stroke-width:1.0;"/><polygon fill="#181818" points="715.51,236.71,722.5812,243.5655,720.204,238.4324,725.3371,236.0552,715.51,236.71" style="stroke:#181818;stroke-width:1.0;"/><text fill="#000000" font-family="sans-serif" font-size="13" lengthAdjust="spacing" textLength="71" x="1699.19" y="279.9284">Show Menu</text></g><!--link DisplayingMenu to Idle--><g id="link_DisplayingMenu_Idle"><path d="M715.5,236.72 C725.13,240.25 735.23,243.36 745,245.36 C773.15,251.11 1758.89,245.84 1779,266.36 C1807.27,295.21 1728.1207,333.4669 1725.4707,334.7369 " fill="none" id="DisplayingMenu-to-Idle" style="stroke:#181818;stroke-width:1.0;"/><polygon fill="#181818" points="1720.06,337.33,1729.9048,337.0476,1724.5689,335.1691,1726.4474,329.8332,1720.06,337.33" style="stroke:#181818;stroke-width:1.0;"/><text fill="#000000" font-family="sans-serif" font-size="13" lengthAdjust="spacing" textLength="29" x="1785.77" y="279.9284">Back</text></g><!--link Idle to DisplayingError--><g id="link_Idle_DisplayingError"><path d="M1719.44,338.36 C1704.05,338.36 1379.97,338.36 1238.48,338.36 " fill="none" id="Idle-to-DisplayingError" style="stroke:#181818;stroke-width:1.0;"/><polygon fill="#181818" points="1232.48,338.36,1241.48,342.36,1237.48,338.36,1241.48,334.36,1232.48,338.36" style="stroke:#181818;stroke-width:1.0;"/><text fill="#000000" font-family="sans-serif" font-size="13" lengthAdjust="spacing" textLength="67" x="1442.32" y="331.9284">Show Error</text></g><!--link DisplayingError to Idle--><g id="link_DisplayingError_Idle"><path d="M1232.48,338.36 C1373.97,338.36 1698.05,338.36 1713.44,338.36 " fill="none" id="DisplayingError-to-Idle" style="stroke:#181818;stroke-width:1.0;"/><polygon fill="#181818" points="1719.44,338.36,1710.44,334.36,1714.44,338.36,1710.44,342.36,1719.44,338.36" style="stroke:#181818;stroke-width:1.0;"/><text fill="#000000" font-family="sans-serif" font-size="13" lengthAdjust="spacing" textLength="48" x="1451.82" y="331.9284">Resolve</text></g><!--link DisplayingMenu to DisplayingError--><g id="link_DisplayingMenu_DisplayingError"><path d="M601.95,236.79 C577.98,249.76 559.66,266.48 576,283.36 C592.55,300.46 980.43,294.15 1004,297.36 C1038.03,301.99 1069.4519,309.1467 1099.9219,317.2567 " fill="none" id="DisplayingMenu-to-DisplayingError" style="stroke:#181818;stroke-width:1.0;"/><polygon fill="#181818" points="1105.72,318.8,1098.0516,312.6197,1100.8882,317.514,1095.994,320.3505,1105.72,318.8" style="stroke:#181818;stroke-width:1.0;"/><text fill="#000000" font-family="sans-serif" font-size="13" lengthAdjust="spacing" textLength="91" x="577" y="279.9284">Error Occurred</text></g><!--link *start*CashDispenser to Idle--><g id="link_*start*CashDispenser_Idle"><path d="M3071.79,217.77 C3060.53,224.97 3039.47,237.69 3020,245.36 C2956.02,270.58 2938.03,273.25 2870,283.36 C2838.615,288.0238 2797.3259,292.3613 2749.0722,296.3817 C2737.0088,297.3868 2724.5101,298.3721 2711.622,299.3377 C2705.178,299.8205 2698.6366,300.2984 2692.0036,300.7714 C2688.6871,301.0079 2685.3477,301.2432 2681.9861,301.4773 C2680.3054,301.5943 2684.6049,301.2991 2682.9131,301.4155 " fill="none" id="*start*CashDispenser-to-Idle" style="stroke:#181818;stroke-width:1.0;"/><polygon fill="#181818" points="2676.9272,301.8274,2686.1806,305.2001,2681.9154,301.4842,2685.6314,297.219,2676.9272,301.8274" style="stroke:#181818;stroke-width:1.0;"/></g><!--link Idle to DispensingCash--><g id="link_Idle_DispensingCash"><path d="M1720.06,337.36 C1725.08,337.52 2046.34,347.29 1967,266.36 C1946.46,245.41 939.76,251.16 911,245.36 C901.12,243.37 896.5516,242.3026 886.8016,238.7726 " fill="none" id="Idle-to-DispensingCash" style="stroke:#181818;stroke-width:1.0;"/><polygon fill="#181818" points="881.16,236.73,888.2607,243.5549,885.8614,238.4321,890.9841,236.0328,881.16,236.73" style="stroke:#181818;stroke-width:1.0;"/><text fill="#000000" font-family="sans-serif" font-size="13" lengthAdjust="spacing" textLength="93" x="1978.16" y="279.9284">Dispense Cash</text></g><!--link DispensingCash to Idle--><g id="link_DispensingCash_Idle"><path d="M881.17,236.71 C890.91,240.24 901.12,243.36 911,245.36 C962.95,255.9 1827.93,228.46 1865,266.36 C1914.39,316.85 1732.0082,336.123 1726.1082,336.733 " fill="none" id="DispensingCash-to-Idle" style="stroke:#181818;stroke-width:1.0;"/><polygon fill="#181818" points="1720.14,337.35,1729.5036,340.4032,1725.1135,336.8358,1728.6809,332.4456,1720.14,337.35" style="stroke:#181818;stroke-width:1.0;"/><text fill="#000000" font-family="sans-serif" font-size="13" lengthAdjust="spacing" textLength="60" x="1874.13" y="279.9284">Complete</text></g><!--link Idle to OutOfCash--><g id="link_Idle_OutOfCash"><path d="M1720.08,337.36 C1726.88,337.21 2161.97,327.53 2102,266.36 C2081.36,245.31 1069.6,252.5 1041,245.36 C1033.02,243.37 1030.3505,242.7685 1022.6805,239.2385 " fill="none" id="Idle-to-OutOfCash" style="stroke:#181818;stroke-width:1.0;"/><polygon fill="#181818" points="1017.23,236.73,1023.7334,244.1264,1021.772,238.8204,1027.078,236.8591,1017.23,236.73" style="stroke:#181818;stroke-width:1.0;"/><text fill="#000000" font-family="sans-serif" font-size="13" lengthAdjust="spacing" textLength="53" x="2108.65" y="279.9284">No Cash</text></g><!--link OutOfCash to Idle--><g id="link_OutOfCash_Idle"><path d="M1017.23,236.74 C1024.9,240.26 1033.02,243.37 1041,245.36 C1071.46,252.95 2149.01,243.96 2171,266.36 C2241.52,338.2 1734.12,337.395 1726.1,337.375 " fill="none" id="OutOfCash-to-Idle" style="stroke:#181818;stroke-width:1.0;"/><polygon fill="#181818" points="1720.1,337.36,1729.09,341.3824,1725.1,337.3725,1729.1099,333.3825,1720.1,337.36" style="stroke:#181818;stroke-width:1.0;"/><text fill="#000000" font-family="sans-serif" font-size="13" lengthAdjust="spacing" textLength="32" x="2178.63" y="279.9284">Refill</text></g><!--link *start*ReceiptPrinter to Idle--><g id="link_*start*ReceiptPrinter_Idle"><path d="M3212.45,215.61 C3177.04,227.48 3049.69,268.57 2941,283.36 C2907.4913,287.9213 2863.3977,292.1838 2811.8746,296.1512 C2786.113,298.1349 2758.4941,300.0449 2729.4122,301.8815 C2714.8713,302.7998 2699.9646,303.6998 2684.7415,304.5816 C2680.9357,304.802 2683.1006,304.6814 2679.256,304.8995 " fill="none" id="*start*ReceiptPrinter-to-Idle" style="stroke:#181818;stroke-width:1.0;"/><polygon fill="#181818" points="2673.2656,305.2395,2682.4778,308.7232,2678.2576,304.9562,2682.0246,300.736,2673.2656,305.2395" style="stroke:#181818;stroke-width:1.0;"/></g><!--link Idle to PrintingReceipt--><g id="link_Idle_PrintingReceipt"><path d="M1720.11,337.36 C1729.4,337.35 2324.07,336.5 2373,283.36 C2378.12,277.8 2378.29,271.75 2373,266.36 C2350.14,243.09 1230.92,252.06 1199,245.36 C1189.54,243.38 1185.41,242.3979 1176.13,238.8779 " fill="none" id="Idle-to-PrintingReceipt" style="stroke:#181818;stroke-width:1.0;"/><polygon fill="#181818" points="1170.52,236.75,1177.5164,243.6819,1175.195,238.5233,1180.3536,236.2019,1170.52,236.75" style="stroke:#181818;stroke-width:1.0;"/><text fill="#000000" font-family="sans-serif" font-size="13" lengthAdjust="spacing" textLength="79" x="2377.9" y="279.9284">Print Receipt</text></g><!--link PrintingReceipt to Idle--><g id="link_PrintingReceipt_Idle"><path d="M1170.52,236.73 C1179.8,240.26 1189.55,243.37 1199,245.36 C1228.14,251.5 2250.15,245.09 2271,266.36 C2276.29,271.75 2276.08,277.76 2271,283.36 C2230,328.57 1733.9392,337.1307 1726.0892,337.2607 " fill="none" id="PrintingReceipt-to-Idle" style="stroke:#181818;stroke-width:1.0;"/><polygon fill="#181818" points="1720.09,337.36,1729.155,341.2104,1725.0893,337.2772,1729.0225,333.2115,1720.09,337.36" style="stroke:#181818;stroke-width:1.0;"/><text fill="#000000" font-family="sans-serif" font-size="13" lengthAdjust="spacing" textLength="60" x="2275.89" y="279.9284">Complete</text></g><!--link Idle to OutOfPaper--><g id="link_Idle_OutOfPaper"><path d="M1720.13,337.36 C1731.13,337.5 2435.66,345.91 2494,283.36 C2499.15,277.83 2499.29,271.75 2494,266.36 C2471.16,243.11 1352.29,254.47 1321,245.36 C1314.14,243.36 1312.5511,243.1346 1306.1311,239.6146 " fill="none" id="Idle-to-OutOfPaper" style="stroke:#181818;stroke-width:1.0;"/><polygon fill="#181818" points="1300.87,236.73,1306.8386,244.5643,1305.2542,239.1338,1310.6847,237.5495,1300.87,236.73" style="stroke:#181818;stroke-width:1.0;"/><text fill="#000000" font-family="sans-serif" font-size="13" lengthAdjust="spacing" textLength="56" x="2498.92" y="279.9284">No Paper</text></g><!--link OutOfPaper to Idle--><g id="link_OutOfPaper_Idle"><path d="M1300.87,236.73 C1307.29,240.26 1314.14,243.37 1321,245.36 C1354.16,254.99 2539.79,241.74 2564,266.36 C2569.3,271.75 2569.17,277.85 2564,283.36 C2532.11,317.36 1738.6382,336.9011 1726.1482,337.2111 " fill="none" id="OutOfPaper-to-Idle" style="stroke:#181818;stroke-width:1.0;"/><polygon fill="#181818" points="1720.15,337.36,1729.2465,341.1355,1725.1485,337.2359,1729.048,333.1379,1720.15,337.36" style="stroke:#181818;stroke-width:1.0;"/><text fill="#000000" font-family="sans-serif" font-size="13" lengthAdjust="spacing" textLength="32" x="2568.92" y="279.9284">Refill</text></g><!--SRC=[hLN1ZjiW4BtdApXNsX-eLf6swQgAkccY9EsbwW7XIKA3mHfmggZQVoy3zXhRE5efzSMOURmty_20FKjTSUGbiuuxO7zdp3-Vk3WVqTIwM1XbyF7n1rUocC_PYpoUt1S4q7dSKbzIvC8WLxFNsIoIF-rNZS3F3x_OmyESBGi5OI82w9DrQX5BJmZGWWqQ0TPAVMGVsSvnT6oFN5ikd3HwZ5_NRdtO0Lwa0BzYnQLseBaMKVOr4K-eSoaauJPpJxWmPQN0hyvbCLWooEKPqU0eYnuebqSFa6Io1LkNm9f8m_jc_O9ZiGLU0Dwx0yJYAo92hxhK5lmUqDUeb1IPeqpZn4o3vzyW711p67N4kGNj7j1sgf5yIfUJJ-Cz7tbn7Tht5QuLB-wrRgchshdqtmqpeymxN9RkBThx3_L1OZa1UZ7Y74pT6-DxG5_PatDGLiwEj1jeJhW99QhVjV9pGxDsWWw8UytwB6sb-DMNi09TasCdyuVH-1OsD5KBpdVOW3YNn02IL4mdtYtOE9FuNWjH8q9n8vi8l9rEnFIxtgXBfjtjYLO1jUV_s0bF53hFdhneonna9ixS1lhDTA1XsGddLDK997FevW_FIS8ksZFm89KQ-hS50R9o6wJh0k-_j3oDhwDXzQfXfbMPS733Ay1eOHXcBgm-RVxMwcFUxM9KdxGnXgTz_0S0]--></g></svg>