<?xml version="1.0" encoding="us-ascii" standalone="no"?><svg xmlns="http://www.w3.org/2000/svg" xmlns:xlink="http://www.w3.org/1999/xlink" contentStyleType="text/css" height="668px" preserveAspectRatio="none" style="width:472px;height:668px;background:#FFFFFF;" version="1.1" viewBox="0 0 472 668" width="472px" zoomAndPan="magnify"><defs/><g><!--cluster Engine--><g id="cluster_Engine"><path d="M79,109.75 L191,109.75 A12.5,12.5 0 0 1 203.5,122.25 L203.5,131.2383 L66.5,131.2383 L66.5,122.25 A12.5,12.5 0 0 1 79,109.75 " fill="#F1F1F1" style="stroke:#F1F1F1;stroke-width:1.0;"/><rect fill="none" height="101" rx="12.5" ry="12.5" style="stroke:#181818;stroke-width:0.5;" width="137" x="66.5" y="109.75"/><line style="stroke:#181818;stroke-width:0.5;" x1="66.5" x2="203.5" y1="131.2383" y2="131.2383"/><text fill="#000000" font-family="sans-serif" font-size="14" lengthAdjust="spacing" textLength="47" x="111.5" y="127.2852">Engine</text></g><ellipse cx="92.5" cy="169.75" fill="#222222" rx="10" ry="10" style="stroke:#222222;stroke-width:1.0;"/><g id="Engine.On"><rect fill="#F1F1F1" height="50" rx="12.5" ry="12.5" style="stroke:#181818;stroke-width:0.5;" width="50" x="137.5" y="144.75"/><line style="stroke:#181818;stroke-width:0.5;" x1="137.5" x2="187.5" y1="171.2383" y2="171.2383"/><text fill="#000000" font-family="sans-serif" font-size="14" lengthAdjust="spacing" textLength="20" x="152.5" y="163.2852">On</text></g><ellipse cx="37.5" cy="169.75" fill="#222222" rx="10" ry="10" style="stroke:#222222;stroke-width:1.0;"/><g id="Off"><rect fill="#F1F1F1" height="50" rx="12.5" ry="12.5" style="stroke:#181818;stroke-width:0.5;" width="50" x="67.5" y="392.49"/><line style="stroke:#181818;stroke-width:0.5;" x1="67.5" x2="117.5" y1="418.9783" y2="418.9783"/><text fill="#000000" font-family="sans-serif" font-size="14" lengthAdjust="spacing" textLength="21" x="82" y="411.0252">Off</text></g><g id="Idle"><rect fill="#F1F1F1" height="50" rx="12.5" ry="12.5" style="stroke:#181818;stroke-width:0.5;" width="50" x="67.5" y="502.49"/><line style="stroke:#181818;stroke-width:0.5;" x1="67.5" x2="117.5" y1="528.9783" y2="528.9783"/><text fill="#000000" font-family="sans-serif" font-size="14" lengthAdjust="spacing" textLength="25" x="80" y="521.0252">Idle</text></g><g id="Driving"><rect fill="#F1F1F1" height="50" rx="12.5" ry="12.5" style="stroke:#181818;stroke-width:0.5;" width="69" x="7" y="612.49"/><line style="stroke:#181818;stroke-width:0.5;" x1="7" x2="76" y1="638.9783" y2="638.9783"/><text fill="#000000" font-family="sans-serif" font-size="14" lengthAdjust="spacing" textLength="49" x="17" y="631.0252">Driving</text></g><g id="Parked"><rect fill="#F1F1F1" height="50" rx="12.5" ry="12.5" style="stroke:#181818;stroke-width:0.5;" width="67" x="111" y="612.49"/><line style="stroke:#181818;stroke-width:0.5;" x1="111" x2="178" y1="638.9783" y2="638.9783"/><text fill="#000000" font-family="sans-serif" font-size="14" lengthAdjust="spacing" textLength="47" x="121" y="631.0252">Parked</text></g><path d="M234.5,50 L314.5,50 A12.5,12.5 0 0 1 327,62.5 L327,76.4883 L222,76.4883 L222,62.5 A12.5,12.5 0 0 1 234.5,50 " fill="#F1F1F1" style="stroke:#F1F1F1;stroke-width:1.0;"/><rect fill="none" height="239.4883" rx="12.5" ry="12.5" style="stroke:#181818;stroke-width:0.5;" width="105" x="222" y="50"/><line style="stroke:#181818;stroke-width:0.5;" x1="222" x2="327" y1="76.4883" y2="76.4883"/><text fill="#000000" font-family="sans-serif" font-size="14" lengthAdjust="spacing" textLength="41" x="254" y="68.5352">Doors</text><ellipse cx="276" cy="97.4883" fill="#222222" rx="10" ry="10" style="stroke:#222222;stroke-width:1.0;"/><g id="Doors.Locked"><rect fill="#F1F1F1" height="50" rx="12.5" ry="12.5" style="stroke:#181818;stroke-width:0.5;" width="68" x="242" y="143.4883"/><line style="stroke:#181818;stroke-width:0.5;" x1="242" x2="310" y1="169.9766" y2="169.9766"/><text fill="#000000" font-family="sans-serif" font-size="14" lengthAdjust="spacing" textLength="48" x="252" y="162.0234">Locked</text></g><g id="Doors.Unlocked"><rect fill="#F1F1F1" height="50" rx="12.5" ry="12.5" style="stroke:#181818;stroke-width:0.5;" width="84" x="234" y="229.4883"/><line style="stroke:#181818;stroke-width:0.5;" x1="234" x2="318" y1="255.9766" y2="255.9766"/><text fill="#000000" font-family="sans-serif" font-size="14" lengthAdjust="spacing" textLength="64" x="244" y="248.0234">Unlocked</text></g><!--link *start*Doors to Locked--><g id="link_*start*Doors_Locked"><path d="M276,107.7983 C276,116.8383 276,124.9783 276,137.2183 " fill="none" id="*start*Doors-to-Locked" style="stroke:#181818;stroke-width:1.0;"/><polygon fill="#181818" points="276,143.2183,280,134.2183,276,138.2183,272,134.2183,276,143.2183" style="stroke:#181818;stroke-width:1.0;"/></g><!--link Locked to Unlocked--><g id="link_Locked_Unlocked"><path d="M269.81,193.7883 C269.06,204.9283 268.6516,212.1222 269.4116,223.2622 " fill="none" id="Locked-to-Unlocked" style="stroke:#181818;stroke-width:1.0;"/><polygon fill="#181818" points="269.82,229.2483,273.1981,219.9969,269.4797,224.2599,265.2167,220.5414,269.82,229.2483" style="stroke:#181818;stroke-width:1.0;"/></g><!--link Unlocked to Locked--><g id="link_Unlocked_Locked"><path d="M282.18,229.2483 C282.94,218.1083 283.343,210.9147 282.593,199.7747 " fill="none" id="Unlocked-to-Locked" style="stroke:#181818;stroke-width:1.0;"/><polygon fill="#181818" points="282.19,193.7883,278.8036,203.0366,282.5259,198.777,286.7855,202.4993,282.19,193.7883" style="stroke:#181818;stroke-width:1.0;"/></g><path d="M374.5,7 L446.5,7 A12.5,12.5 0 0 1 459,19.5 L459,33.4883 L362,33.4883 L362,19.5 A12.5,12.5 0 0 1 374.5,7 " fill="#F1F1F1" style="stroke:#F1F1F1;stroke-width:1.0;"/><rect fill="none" height="325.4883" rx="12.5" ry="12.5" style="stroke:#181818;stroke-width:0.5;" width="97" x="362" y="7"/><line style="stroke:#181818;stroke-width:0.5;" x1="362" x2="459" y1="33.4883" y2="33.4883"/><text fill="#000000" font-family="sans-serif" font-size="14" lengthAdjust="spacing" textLength="77" x="372" y="25.5352">FuelSystem</text><ellipse cx="405" cy="54.4883" fill="#222222" rx="10" ry="10" style="stroke:#222222;stroke-width:1.0;"/><g id="FuelSystem.Empty"><rect fill="#F1F1F1" height="50" rx="12.5" ry="12.5" style="stroke:#181818;stroke-width:0.5;" width="62" x="374" y="100.4883"/><line style="stroke:#181818;stroke-width:0.5;" x1="374" x2="436" y1="126.9766" y2="126.9766"/><text fill="#000000" font-family="sans-serif" font-size="14" lengthAdjust="spacing" textLength="42" x="384" y="119.0234">Empty</text></g><g id="FuelSystem.Low"><rect fill="#F1F1F1" height="50" rx="12.5" ry="12.5" style="stroke:#181818;stroke-width:0.5;" width="50" x="380" y="186.4883"/><line style="stroke:#181818;stroke-width:0.5;" x1="380" x2="430" y1="212.9766" y2="212.9766"/><text fill="#000000" font-family="sans-serif" font-size="14" lengthAdjust="spacing" textLength="27" x="391.5" y="205.0234">Low</text></g><g id="FuelSystem.Full"><rect fill="#F1F1F1" height="50" rx="12.5" ry="12.5" style="stroke:#181818;stroke-width:0.5;" width="50" x="380" y="272.4883"/><line style="stroke:#181818;stroke-width:0.5;" x1="380" x2="430" y1="298.9766" y2="298.9766"/><text fill="#000000" font-family="sans-serif" font-size="14" lengthAdjust="spacing" textLength="25" x="392.5" y="291.0234">Full</text></g><!--link *start*FuelSystem to Empty--><g id="link_*start*FuelSystem_Empty"><path d="M405,64.7983 C405,73.8383 405,81.9783 405,94.2183 " fill="none" id="*start*FuelSystem-to-Empty" style="stroke:#181818;stroke-width:1.0;"/><polygon fill="#181818" points="405,100.2183,409,91.2183,405,95.2183,401,91.2183,405,100.2183" style="stroke:#181818;stroke-width:1.0;"/></g><!--link Empty to Low--><g id="link_Empty_Low"><path d="M398.81,150.7883 C398.06,161.9283 397.6516,169.1222 398.4116,180.2622 " fill="none" id="Empty-to-Low" style="stroke:#181818;stroke-width:1.0;"/><polygon fill="#181818" points="398.82,186.2483,402.1981,176.9969,398.4797,181.2599,394.2167,177.5414,398.82,186.2483" style="stroke:#181818;stroke-width:1.0;"/></g><!--link Low to Full--><g id="link_Low_Full"><path d="M398.81,236.7883 C398.06,247.9283 397.6516,255.1222 398.4116,266.2622 " fill="none" id="Low-to-Full" style="stroke:#181818;stroke-width:1.0;"/><polygon fill="#181818" points="398.82,272.2483,402.1981,262.9969,398.4797,267.2599,394.2167,263.5414,398.82,272.2483" style="stroke:#181818;stroke-width:1.0;"/></g><!--link Low to Empty--><g id="link_Low_Empty"><path d="M411.18,186.2483 C411.94,175.1083 412.343,167.9147 411.593,156.7747 " fill="none" id="Low-to-Empty" style="stroke:#181818;stroke-width:1.0;"/><polygon fill="#181818" points="411.19,150.7883,407.8036,160.0366,411.5259,155.777,415.7855,159.4993,411.19,150.7883" style="stroke:#181818;stroke-width:1.0;"/></g><!--link Full to Low--><g id="link_Full_Low"><path d="M411.18,272.2483 C411.94,261.1083 412.343,253.9147 411.593,242.7747 " fill="none" id="Full-to-Low" style="stroke:#181818;stroke-width:1.0;"/><polygon fill="#181818" points="411.19,236.7883,407.8036,246.0366,411.5259,241.777,415.7855,245.4993,411.19,236.7883" style="stroke:#181818;stroke-width:1.0;"/></g><!--link *start* to Off--><g id="link_*start*_Off"><path d="M38.75,179.95 C42.19,204.77 52.53,275.11 66.5,332.49 C71.45,352.81 76.6588,369.7459 82.1888,386.3959 " fill="none" id="*start*-to-Off" style="stroke:#181818;stroke-width:1.0;"/><polygon fill="#181818" points="84.08,392.09,85.0393,382.288,82.504,387.3449,77.4471,384.8096,84.08,392.09" style="stroke:#181818;stroke-width:1.0;"/></g><!--link Off to Idle--><g id="link_Off_Idle"><path d="M81.34,442.73 C78.72,460.51 77.8411,478.6347 80.4711,496.3947 " fill="none" id="Off-to-Idle" style="stroke:#181818;stroke-width:1.0;"/><polygon fill="#181818" points="81.35,502.33,83.9885,492.8411,80.6176,497.3839,76.0748,494.013,81.35,502.33" style="stroke:#181818;stroke-width:1.0;"/></g><!--link Idle to Off--><g id="link_Idle_Off"><path d="M103.65,502.33 C106.28,484.57 107.1547,466.4459 104.5347,448.6659 " fill="none" id="Idle-to-Off" style="stroke:#181818;stroke-width:1.0;"/><polygon fill="#181818" points="103.66,442.73,101.0148,452.217,104.3889,447.6766,108.9293,451.0507,103.66,442.73" style="stroke:#181818;stroke-width:1.0;"/></g><!--link Idle to Driving--><g id="link_Idle_Driving"><path d="M69.89,552.73 C58.87,570.51 49.371,588.8627 43.611,606.6227 " fill="none" id="Idle-to-Driving" style="stroke:#181818;stroke-width:1.0;"/><polygon fill="#181818" points="41.76,612.33,48.3414,605.003,43.3025,607.5739,40.7317,602.535,41.76,612.33" style="stroke:#181818;stroke-width:1.0;"/></g><!--link Driving to Idle--><g id="link_Driving_Idle"><path d="M64.06,612.33 C75.08,594.57 84.585,576.2161 90.365,558.4361 " fill="none" id="Driving-to-Idle" style="stroke:#181818;stroke-width:1.0;"/><polygon fill="#181818" points="92.22,552.73,85.6335,560.0525,90.6742,557.4851,93.2416,562.5257,92.22,552.73" style="stroke:#181818;stroke-width:1.0;"/></g><!--link Idle to Parked--><g id="link_Idle_Parked"><path d="M93.01,552.73 C98.95,570.51 107.3436,589.4923 118.5236,607.2523 " fill="none" id="Idle-to-Parked" style="stroke:#181818;stroke-width:1.0;"/><polygon fill="#181818" points="121.72,612.33,120.3105,602.5825,119.0563,608.0986,113.5402,606.8444,121.72,612.33" style="stroke:#181818;stroke-width:1.0;"/></g><!--link Parked to Idle--><g id="link_Parked_Idle"><path d="M144.02,612.33 C138.09,594.57 129.7159,575.588 118.5259,557.808 " fill="none" id="Parked-to-Idle" style="stroke:#181818;stroke-width:1.0;"/><polygon fill="#181818" points="115.33,552.73,116.7385,562.4776,117.9932,556.9617,123.5092,558.2164,115.33,552.73" style="stroke:#181818;stroke-width:1.0;"/></g><!--link *start*Engine to Off--><g id="link_*start*Engine_Off"><path d="M92.5,180.08 C92.5,215.06 92.5,333.09 92.5,386.14 " fill="none" id="*start*Engine-to-Off" style="stroke:#181818;stroke-width:1.0;"/><polygon fill="#181818" points="92.5,392.14,96.5,383.14,92.5,387.14,88.5,383.14,92.5,392.14" style="stroke:#181818;stroke-width:1.0;"/></g><!--link Off to On--><g id="link_Off_On"><path d="M115.97,392 C124.42,375.32 132.02,352.68 138,332.49 C152.33,284.09 166.1829,232.7462 168.3429,200.9862 " fill="none" id="Off-to-On" style="stroke:#181818;stroke-width:1.0;"/><polygon fill="#181818" points="168.75,195,164.1485,203.7078,168.4107,199.9885,172.1301,204.2507,168.75,195" style="stroke:#181818;stroke-width:1.0;"/></g><!--link On to Off--><g id="link_On_Off"><path d="M144.74,195 C131.59,226.76 117.33,284.09 103,332.49 C97.02,352.68 90.5129,369.4204 87.4229,386.1004 " fill="none" id="On-to-Off" style="stroke:#181818;stroke-width:1.0;"/><polygon fill="#181818" points="86.33,392,91.9025,383.8792,87.2408,387.0836,84.0363,382.422,86.33,392" style="stroke:#181818;stroke-width:1.0;"/></g><!--SRC=[VKzB2eCm5Dpd56yd5Bn2DrMXKB1GkYfT18rM6XE9iIB5kzTyD16nWOGtysQOIG0tYIM1lCAbm3KKN81y4JXX0Hcl6yu8a-XnU48O7Y4j2ZHTFPzpIf1wD8f4zQbOwOWh5c-IEwoiLkJiHkGm2dRgnAoi6F4QjLfcwI-2wVWb5PwBfin0jcp7_Q28Sz5kSWoxZhdmJ7rGKMRKx9rHny_0r__9JZf2RqChIRqfuAtMBUAwaODcz6IJUbkhrpZfA5qHpgHMYsVy0G00]--></g></svg>