<?xml version="1.0" encoding="us-ascii" standalone="no"?><svg xmlns="http://www.w3.org/2000/svg" xmlns:xlink="http://www.w3.org/1999/xlink" contentStyleType="text/css" height="1045px" preserveAspectRatio="none" style="width:491px;height:1045px;background:#FFFFFF;" version="1.1" viewBox="0 0 491 1045" width="491px" zoomAndPan="magnify"><defs/><g><text fill="#000000" font-family="sans-serif" font-size="14" font-weight="bold" lengthAdjust="spacing" textLength="272" x="102.74" y="23.5352">Automatic Rice Cooker State Diagram</text><!--cluster PowerSystem--><g id="cluster_PowerSystem"><path d="M142.5,733.4683 L223.5,733.4683 A12.5,12.5 0 0 1 236,745.9683 L236,754.9566 L130,754.9566 L130,745.9683 A12.5,12.5 0 0 1 142.5,733.4683 " fill="#F1F1F1" style="stroke:#F1F1F1;stroke-width:1.0;"/><rect fill="none" height="306" rx="12.5" ry="12.5" style="stroke:#181818;stroke-width:0.5;" width="106" x="130" y="733.4683"/><line style="stroke:#181818;stroke-width:0.5;" x1="130" x2="236" y1="754.9566" y2="754.9566"/><text fill="#000000" font-family="sans-serif" font-size="14" lengthAdjust="spacing" textLength="90" x="138" y="751.0034">PowerSystem</text></g><!--cluster CookingSystem--><g id="cluster_CookingSystem"><path d="M272.5,119.2383 L430.5,119.2383 A12.5,12.5 0 0 1 443,131.7383 L443,140.7266 L260,140.7266 L260,131.7383 A12.5,12.5 0 0 1 272.5,119.2383 " fill="#F1F1F1" style="stroke:#F1F1F1;stroke-width:1.0;"/><rect fill="none" height="700.23" rx="12.5" ry="12.5" style="stroke:#181818;stroke-width:0.5;" width="183" x="260" y="119.2383"/><line style="stroke:#181818;stroke-width:0.5;" x1="260" x2="443" y1="140.7266" y2="140.7266"/><text fill="#000000" font-family="sans-serif" font-size="14" lengthAdjust="spacing" textLength="106" x="298.5" y="136.7734">CookingSystem</text></g><ellipse cx="195" cy="778.4683" fill="#222222" rx="10" ry="10" style="stroke:#222222;stroke-width:1.0;"/><g id="PowerSystem.Off"><rect fill="#F1F1F1" height="50" rx="12.5" ry="12.5" style="stroke:#181818;stroke-width:0.5;" width="50" x="170" y="863.4683"/><line style="stroke:#181818;stroke-width:0.5;" x1="170" x2="220" y1="889.9566" y2="889.9566"/><text fill="#000000" font-family="sans-serif" font-size="14" lengthAdjust="spacing" textLength="21" x="184.5" y="882.0034">Off</text></g><g id="PowerSystem.On"><rect fill="#F1F1F1" height="50" rx="12.5" ry="12.5" style="stroke:#181818;stroke-width:0.5;" width="50" x="170" y="973.4683"/><line style="stroke:#181818;stroke-width:0.5;" x1="170" x2="220" y1="999.9566" y2="999.9566"/><text fill="#000000" font-family="sans-serif" font-size="14" lengthAdjust="spacing" textLength="20" x="185" y="992.0034">On</text></g><ellipse cx="367" cy="164.2383" fill="#222222" rx="10" ry="10" style="stroke:#222222;stroke-width:1.0;"/><g id="CookingSystem.Idle"><rect fill="#F1F1F1" height="50" rx="12.5" ry="12.5" style="stroke:#181818;stroke-width:0.5;" width="50" x="342" y="343.9783"/><line style="stroke:#181818;stroke-width:0.5;" x1="342" x2="392" y1="370.4666" y2="370.4666"/><text fill="#000000" font-family="sans-serif" font-size="14" lengthAdjust="spacing" textLength="25" x="354.5" y="362.5134">Idle</text></g><path d="M288,453.9783 L378,453.9783 A12.5,12.5 0 0 1 390.5,466.4783 L390.5,480.4666 L275.5,480.4666 L275.5,466.4783 A12.5,12.5 0 0 1 288,453.9783 " fill="#F1F1F1" style="stroke:#F1F1F1;stroke-width:1.0;"/><rect fill="none" height="239.4883" rx="12.5" ry="12.5" style="stroke:#181818;stroke-width:0.5;" width="115" x="275.5" y="453.9783"/><line style="stroke:#181818;stroke-width:0.5;" x1="275.5" x2="390.5" y1="480.4666" y2="480.4666"/><text fill="#000000" font-family="sans-serif" font-size="14" lengthAdjust="spacing" textLength="58" x="304" y="472.5134">Cooking</text><ellipse cx="334.5" cy="501.4666" fill="#222222" rx="10" ry="10" style="stroke:#222222;stroke-width:1.0;"/><g id="CookingSystem.Cooking.Heating"><rect fill="#F1F1F1" height="50" rx="12.5" ry="12.5" style="stroke:#181818;stroke-width:0.5;" width="73" x="298" y="547.4666"/><line style="stroke:#181818;stroke-width:0.5;" x1="298" x2="371" y1="573.9548" y2="573.9548"/><text fill="#000000" font-family="sans-serif" font-size="14" lengthAdjust="spacing" textLength="53" x="308" y="566.0017">Heating</text></g><g id="CookingSystem.Cooking.Simmering"><rect fill="#F1F1F1" height="50" rx="12.5" ry="12.5" style="stroke:#181818;stroke-width:0.5;" width="94" x="287.5" y="633.4666"/><line style="stroke:#181818;stroke-width:0.5;" x1="287.5" x2="381.5" y1="659.9548" y2="659.9548"/><text fill="#000000" font-family="sans-serif" font-size="14" lengthAdjust="spacing" textLength="74" x="297.5" y="652.0017">Simmering</text></g><!--link *start*Cooking to Heating--><g id="link_*start*Cooking_Heating"><path d="M334.5,511.7766 C334.5,520.8166 334.5,528.9566 334.5,541.1966 " fill="none" id="*start*Cooking-to-Heating" style="stroke:#181818;stroke-width:1.0;"/><polygon fill="#181818" points="334.5,547.1966,338.5,538.1966,334.5,542.1966,330.5,538.1966,334.5,547.1966" style="stroke:#181818;stroke-width:1.0;"/></g><!--link Heating to Simmering--><g id="link_Heating_Simmering"><path d="M328.31,597.7666 C327.56,608.9066 327.1516,616.1005 327.9116,627.2405 " fill="none" id="Heating-to-Simmering" style="stroke:#181818;stroke-width:1.0;"/><polygon fill="#181818" points="328.32,633.2266,331.6981,623.9752,327.9797,628.2382,323.7167,624.5197,328.32,633.2266" style="stroke:#181818;stroke-width:1.0;"/></g><!--link Simmering to Heating--><g id="link_Simmering_Heating"><path d="M340.68,633.2266 C341.44,622.0866 341.843,614.893 341.093,603.753 " fill="none" id="Simmering-to-Heating" style="stroke:#181818;stroke-width:1.0;"/><polygon fill="#181818" points="340.69,597.7666,337.3036,607.0149,341.0259,602.7553,345.2855,606.4775,340.69,597.7666" style="stroke:#181818;stroke-width:1.0;"/></g><g id="CookingSystem.KeepWarm"><rect fill="#F1F1F1" height="50" rx="12.5" ry="12.5" style="stroke:#181818;stroke-width:0.5;" width="93" x="286.5" y="753.4683"/><line style="stroke:#181818;stroke-width:0.5;" x1="286.5" x2="379.5" y1="779.9566" y2="779.9566"/><text fill="#000000" font-family="sans-serif" font-size="14" lengthAdjust="spacing" textLength="73" x="296.5" y="772.0034">KeepWarm</text></g><path d="M19.5,44.4883 L82.5,44.4883 A12.5,12.5 0 0 1 95,56.9883 L95,70.9766 L7,70.9766 L7,56.9883 A12.5,12.5 0 0 1 19.5,44.4883 " fill="#F1F1F1" style="stroke:#F1F1F1;stroke-width:1.0;"/><rect fill="none" height="239.4883" rx="12.5" ry="12.5" style="stroke:#181818;stroke-width:0.5;" width="88" x="7" y="44.4883"/><line style="stroke:#181818;stroke-width:0.5;" x1="7" x2="95" y1="70.9766" y2="70.9766"/><text fill="#000000" font-family="sans-serif" font-size="14" lengthAdjust="spacing" textLength="68" x="17" y="63.0234">LidSystem</text><ellipse cx="52.5" cy="91.9766" fill="#222222" rx="10" ry="10" style="stroke:#222222;stroke-width:1.0;"/><g id="LidSystem.Open"><rect fill="#F1F1F1" height="50" rx="12.5" ry="12.5" style="stroke:#181818;stroke-width:0.5;" width="57" x="24" y="137.9766"/><line style="stroke:#181818;stroke-width:0.5;" x1="24" x2="81" y1="164.4648" y2="164.4648"/><text fill="#000000" font-family="sans-serif" font-size="14" lengthAdjust="spacing" textLength="37" x="34" y="156.5117">Open</text></g><g id="LidSystem.Closed"><rect fill="#F1F1F1" height="50" rx="12.5" ry="12.5" style="stroke:#181818;stroke-width:0.5;" width="67" x="19" y="223.9766"/><line style="stroke:#181818;stroke-width:0.5;" x1="19" x2="86" y1="250.4648" y2="250.4648"/><text fill="#000000" font-family="sans-serif" font-size="14" lengthAdjust="spacing" textLength="47" x="29" y="242.5117">Closed</text></g><!--link *start*LidSystem to Open--><g id="link_*start*LidSystem_Open"><path d="M52.5,102.2866 C52.5,111.3266 52.5,119.4666 52.5,131.7066 " fill="none" id="*start*LidSystem-to-Open" style="stroke:#181818;stroke-width:1.0;"/><polygon fill="#181818" points="52.5,137.7066,56.5,128.7066,52.5,132.7066,48.5,128.7066,52.5,137.7066" style="stroke:#181818;stroke-width:1.0;"/></g><!--link Open to Closed--><g id="link_Open_Closed"><path d="M46.31,188.2766 C45.56,199.4166 45.1516,206.6105 45.9116,217.7505 " fill="none" id="Open-to-Closed" style="stroke:#181818;stroke-width:1.0;"/><polygon fill="#181818" points="46.32,223.7366,49.6981,214.4852,45.9797,218.7482,41.7167,215.0297,46.32,223.7366" style="stroke:#181818;stroke-width:1.0;"/></g><!--link Closed to Open--><g id="link_Closed_Open"><path d="M58.68,223.7366 C59.44,212.5966 59.843,205.403 59.093,194.263 " fill="none" id="Closed-to-Open" style="stroke:#181818;stroke-width:1.0;"/><polygon fill="#181818" points="58.69,188.2766,55.3036,197.5249,59.0259,193.2653,63.2855,196.9875,58.69,188.2766" style="stroke:#181818;stroke-width:1.0;"/></g><path d="M142,44.4883 L232,44.4883 A12.5,12.5 0 0 1 244.5,56.9883 L244.5,70.9766 L129.5,70.9766 L129.5,56.9883 A12.5,12.5 0 0 1 142,44.4883 " fill="#F1F1F1" style="stroke:#F1F1F1;stroke-width:1.0;"/><rect fill="none" height="239.4883" rx="12.5" ry="12.5" style="stroke:#181818;stroke-width:0.5;" width="115" x="129.5" y="44.4883"/><line style="stroke:#181818;stroke-width:0.5;" x1="129.5" x2="244.5" y1="70.9766" y2="70.9766"/><text fill="#000000" font-family="sans-serif" font-size="14" lengthAdjust="spacing" textLength="95" x="139.5" y="63.0234">SensorSystem</text><ellipse cx="176.5" cy="91.9766" fill="#222222" rx="10" ry="10" style="stroke:#222222;stroke-width:1.0;"/><g id="SensorSystem.Normal"><rect fill="#F1F1F1" height="50" rx="12.5" ry="12.5" style="stroke:#181818;stroke-width:0.5;" width="70" x="141.5" y="137.9766"/><line style="stroke:#181818;stroke-width:0.5;" x1="141.5" x2="211.5" y1="164.4648" y2="164.4648"/><text fill="#000000" font-family="sans-serif" font-size="14" lengthAdjust="spacing" textLength="50" x="151.5" y="156.5117">Normal</text></g><g id="SensorSystem.Error"><rect fill="#F1F1F1" height="50" rx="12.5" ry="12.5" style="stroke:#181818;stroke-width:0.5;" width="55" x="149" y="223.9766"/><line style="stroke:#181818;stroke-width:0.5;" x1="149" x2="204" y1="250.4648" y2="250.4648"/><text fill="#000000" font-family="sans-serif" font-size="14" lengthAdjust="spacing" textLength="35" x="159" y="242.5117">Error</text></g><!--link *start*SensorSystem to Normal--><g id="link_*start*SensorSystem_Normal"><path d="M176.5,102.2866 C176.5,111.3266 176.5,119.4666 176.5,131.7066 " fill="none" id="*start*SensorSystem-to-Normal" style="stroke:#181818;stroke-width:1.0;"/><polygon fill="#181818" points="176.5,137.7066,180.5,128.7066,176.5,132.7066,172.5,128.7066,176.5,137.7066" style="stroke:#181818;stroke-width:1.0;"/></g><!--link Normal to Error--><g id="link_Normal_Error"><path d="M170.31,188.2766 C169.56,199.4166 169.1516,206.6105 169.9116,217.7505 " fill="none" id="Normal-to-Error" style="stroke:#181818;stroke-width:1.0;"/><polygon fill="#181818" points="170.32,223.7366,173.6981,214.4852,169.9797,218.7482,165.7167,215.0297,170.32,223.7366" style="stroke:#181818;stroke-width:1.0;"/></g><!--link Error to Normal--><g id="link_Error_Normal"><path d="M182.68,223.7366 C183.44,212.5966 183.843,205.403 183.093,194.263 " fill="none" id="Error-to-Normal" style="stroke:#181818;stroke-width:1.0;"/><polygon fill="#181818" points="182.69,188.2766,179.3036,197.5249,183.0259,193.2653,187.2855,196.9875,182.69,188.2766" style="stroke:#181818;stroke-width:1.0;"/></g><!--link *start*PowerSystem to Off--><g id="link_*start*PowerSystem_Off"><path d="M195,788.6783 C195,804.9983 195,833.5083 195,857.0983 " fill="none" id="*start*PowerSystem-to-Off" style="stroke:#181818;stroke-width:1.0;"/><polygon fill="#181818" points="195,863.0983,199,854.0983,195,858.0983,191,854.0983,195,863.0983" style="stroke:#181818;stroke-width:1.0;"/></g><!--link Off to On--><g id="link_Off_On"><path d="M183.84,913.7083 C181.22,931.4883 180.3411,949.613 182.9711,967.373 " fill="none" id="Off-to-On" style="stroke:#181818;stroke-width:1.0;"/><polygon fill="#181818" points="183.85,973.3083,186.4885,963.8194,183.1176,968.3622,178.5748,964.9913,183.85,973.3083" style="stroke:#181818;stroke-width:1.0;"/></g><!--link On to Off--><g id="link_On_Off"><path d="M206.15,973.3083 C208.78,955.5483 209.6547,937.4242 207.0347,919.6442 " fill="none" id="On-to-Off" style="stroke:#181818;stroke-width:1.0;"/><polygon fill="#181818" points="206.16,913.7083,203.5148,923.1953,206.8889,918.6549,211.4293,922.029,206.16,913.7083" style="stroke:#181818;stroke-width:1.0;"/></g><!--link *start*CookingSystem to Idle--><g id="link_*start*CookingSystem_Idle"><path d="M367,174.4783 C367,204.2983 367,292.6883 367,337.6783 " fill="none" id="*start*CookingSystem-to-Idle" style="stroke:#181818;stroke-width:1.0;"/><polygon fill="#181818" points="367,343.6783,371,334.6783,367,338.6783,363,334.6783,367,343.6783" style="stroke:#181818;stroke-width:1.0;"/></g><!--link Idle to Cooking--><g id="link_Idle_Cooking"><path d="M353.98,394.4383 C349.16,409.9183 345.3595,425.3118 341.1295,447.7918 " fill="none" id="Idle-to-Cooking" style="stroke:#181818;stroke-width:1.0;"/><polygon fill="#181818" points="340.02,453.6883,345.6153,445.5832,340.9446,448.7745,337.7533,444.1038,340.02,453.6883" style="stroke:#181818;stroke-width:1.0;"/></g><!--link Cooking to Idle--><g id="link_Cooking_Idle"><path d="M365.91,453.6883 C369.22,431.2083 371.3105,415.9167 371.6705,400.4367 " fill="none" id="Cooking-to-Idle" style="stroke:#181818;stroke-width:1.0;"/><polygon fill="#181818" points="371.81,394.4383,367.6018,403.3429,371.6938,399.4369,375.5997,403.5288,371.81,394.4383" style="stroke:#181818;stroke-width:1.0;"/></g><!--link Cooking to KeepWarm--><g id="link_Cooking_KeepWarm"><path d="M333,693.8383 C333,716.4183 333,731.7883 333,747.2783 " fill="none" id="Cooking-to-KeepWarm" style="stroke:#181818;stroke-width:1.0;"/><polygon fill="#181818" points="333,753.2783,337,744.2783,333,748.2783,329,744.2783,333,753.2783" style="stroke:#181818;stroke-width:1.0;"/></g><!--link KeepWarm to Idle--><g id="link_KeepWarm_Idle"><path d="M363.81,753.0083 C380.33,737.8483 399.08,716.8483 408,693.4683 C445.94,594.0183 431.96,557.6883 408,453.9783 C403.07,432.6383 394.9547,415.6259 385.5347,399.4159 " fill="none" id="KeepWarm-to-Idle" style="stroke:#181818;stroke-width:1.0;"/><polygon fill="#181818" points="382.52,394.2283,383.5836,404.0195,385.0322,398.5513,390.5004,400,382.52,394.2283" style="stroke:#181818;stroke-width:1.0;"/></g><!--link On to Idle--><g id="link_On_Idle"><path d="M220.26,983.5783 C263.56,958.4183 351.63,900.9983 397,827.4683 C484.48,685.6783 481.08,612.2383 429,453.9783 C421.58,431.4283 409.5162,414.4339 395.5962,398.8439 " fill="none" id="On-to-Idle" style="stroke:#181818;stroke-width:1.0;"/><polygon fill="#181818" points="391.6,394.3683,394.6105,403.7457,394.9301,398.0979,400.5779,398.4175,391.6,394.3683" style="stroke:#181818;stroke-width:1.0;"/></g><!--link KeepWarm to Off--><g id="link_KeepWarm_Off"><path d="M302.03,803.7083 C277.4,822.9883 248.0854,845.9309 225.0554,863.9509 " fill="none" id="KeepWarm-to-Off" style="stroke:#181818;stroke-width:1.0;"/><polygon fill="#181818" points="220.33,867.6483,229.883,865.2524,224.2678,864.5671,224.9531,858.9519,220.33,867.6483" style="stroke:#181818;stroke-width:1.0;"/></g><!--SRC=[ZLB1QiCm3BtdAtGR3D9F69HsiB6nbgQmmzZ1D6enYwqWUumn-k-pPRUpMGxn9TBJivyYFQ_zWB3yz6IKrmVOwGF2YkW36JglFC9QgnChqpGtiAMl27yxZoPL7IZRmvwLTTfhigvnSacOcVZJG3Xlj-_GjdUmEHub3z-KsvJQQ_KSfM8BsfvcYMNkfDnZFw00CH0aimMyg4Jy2N5yLMoaS4dgDqgwW89MJMJvieK739FDWl7aN6gTDWQvh5wHVtVFQJBFkfyrbS2RNi28UUGXI1CPo66V_b32FvueTcWTpTjxeaxglX0RDGYKGa7lcOa5bAXa9XymETUko8naqVfAiZ3P8lkdii92TbH3rMAh1uBpVW40]--></g></svg>