<?xml version="1.0" encoding="us-ascii" standalone="no"?><svg xmlns="http://www.w3.org/2000/svg" xmlns:xlink="http://www.w3.org/1999/xlink" contentStyleType="text/css" height="507px" preserveAspectRatio="none" style="width:1993px;height:507px;background:#FFFFFF;" version="1.1" viewBox="0 0 1993 507" width="1993px" zoomAndPan="magnify"><defs/><g><!--cluster DishwasherDoor--><g id="cluster_DishwasherDoor"><path d="M19.5,22 L553.5,22 A12.5,12.5 0 0 1 566,34.5 L566,43.4883 L7,43.4883 L7,34.5 A12.5,12.5 0 0 1 19.5,22 " fill="#F1F1F1" style="stroke:#F1F1F1;stroke-width:1.0;"/><rect fill="none" height="479" rx="12.5" ry="12.5" style="stroke:#181818;stroke-width:0.5;" width="559" x="7" y="22"/><line style="stroke:#181818;stroke-width:0.5;" x1="7" x2="566" y1="43.4883" y2="43.4883"/><text fill="#000000" font-family="sans-serif" font-size="14" lengthAdjust="spacing" textLength="117" x="228" y="39.5352">Dishwasher Door</text></g><!--cluster WaterPump--><g id="cluster_WaterPump"><path d="M782.5,22 L1003.5,22 A12.5,12.5 0 0 1 1016,34.5 L1016,43.4883 L770,43.4883 L770,34.5 A12.5,12.5 0 0 1 782.5,22 " fill="#F1F1F1" style="stroke:#F1F1F1;stroke-width:1.0;"/><rect fill="none" height="350" rx="12.5" ry="12.5" style="stroke:#181818;stroke-width:0.5;" width="246" x="770" y="22"/><line style="stroke:#181818;stroke-width:0.5;" x1="770" x2="1016" y1="43.4883" y2="43.4883"/><text fill="#000000" font-family="sans-serif" font-size="14" lengthAdjust="spacing" textLength="82" x="852" y="39.5352">Water Pump</text></g><!--cluster SprayArm--><g id="cluster_SprayArm"><path d="M1274.5,22 L1531.5,22 A12.5,12.5 0 0 1 1544,34.5 L1544,43.4883 L1262,43.4883 L1262,34.5 A12.5,12.5 0 0 1 1274.5,22 " fill="#F1F1F1" style="stroke:#F1F1F1;stroke-width:1.0;"/><rect fill="none" height="350" rx="12.5" ry="12.5" style="stroke:#181818;stroke-width:0.5;" width="282" x="1262" y="22"/><line style="stroke:#181818;stroke-width:0.5;" x1="1262" x2="1544" y1="43.4883" y2="43.4883"/><text fill="#000000" font-family="sans-serif" font-size="14" lengthAdjust="spacing" textLength="71" x="1367.5" y="39.5352">Spray Arm</text></g><!--cluster Heater--><g id="cluster_Heater"><path d="M1052.5,7 L1188.5,7 A12.5,12.5 0 0 1 1201,19.5 L1201,28.4883 L1040,28.4883 L1040,19.5 A12.5,12.5 0 0 1 1052.5,7 " fill="#F1F1F1" style="stroke:#F1F1F1;stroke-width:1.0;"/><rect fill="none" height="101" rx="12.5" ry="12.5" style="stroke:#181818;stroke-width:0.5;" width="161" x="1040" y="7"/><line style="stroke:#181818;stroke-width:0.5;" x1="1040" x2="1201" y1="28.4883" y2="28.4883"/><text fill="#000000" font-family="sans-serif" font-size="14" lengthAdjust="spacing" textLength="45" x="1098" y="24.5352">Heater</text></g><!--cluster DetergentDispenser--><g id="cluster_DetergentDispenser"><path d="M602.5,157 L733.5,157 A12.5,12.5 0 0 1 746,169.5 L746,178.4883 L590,178.4883 L590,169.5 A12.5,12.5 0 0 1 602.5,157 " fill="#F1F1F1" style="stroke:#F1F1F1;stroke-width:1.0;"/><rect fill="none" height="71" rx="12.5" ry="12.5" style="stroke:#181818;stroke-width:0.5;" width="156" x="590" y="157"/><line style="stroke:#181818;stroke-width:0.5;" x1="590" x2="746" y1="178.4883" y2="178.4883"/><text fill="#000000" font-family="sans-serif" font-size="14" lengthAdjust="spacing" textLength="140" x="598" y="174.5352">Detergent Dispenser</text></g><!--cluster ControlPanel--><g id="cluster_ControlPanel"><path d="M1580.5,7 L1967.5,7 A12.5,12.5 0 0 1 1980,19.5 L1980,28.4883 L1568,28.4883 L1568,19.5 A12.5,12.5 0 0 1 1580.5,7 " fill="#F1F1F1" style="stroke:#F1F1F1;stroke-width:1.0;"/><rect fill="none" height="236" rx="12.5" ry="12.5" style="stroke:#181818;stroke-width:0.5;" width="412" x="1568" y="7"/><line style="stroke:#181818;stroke-width:0.5;" x1="1568" x2="1980" y1="28.4883" y2="28.4883"/><text fill="#000000" font-family="sans-serif" font-size="14" lengthAdjust="spacing" textLength="93" x="1727.5" y="24.5352">Control Panel</text></g><ellipse cx="257" cy="67" fill="#222222" rx="10" ry="10" style="stroke:#222222;stroke-width:1.0;"/><g id="DishwasherDoor.Open"><rect fill="#F1F1F1" height="50" rx="12.5" ry="12.5" style="stroke:#181818;stroke-width:0.5;" width="57" x="228.5" y="177"/><line style="stroke:#181818;stroke-width:0.5;" x1="228.5" x2="285.5" y1="203.4883" y2="203.4883"/><text fill="#000000" font-family="sans-serif" font-size="14" lengthAdjust="spacing" textLength="37" x="238.5" y="195.5352">Open</text></g><g id="DishwasherDoor.Closed"><rect fill="#F1F1F1" height="50" rx="12.5" ry="12.5" style="stroke:#181818;stroke-width:0.5;" width="67" x="278.5" y="306"/><line style="stroke:#181818;stroke-width:0.5;" x1="278.5" x2="345.5" y1="332.4883" y2="332.4883"/><text fill="#000000" font-family="sans-serif" font-size="14" lengthAdjust="spacing" textLength="47" x="288.5" y="324.5352">Closed</text></g><g id="DishwasherDoor.Locked"><rect fill="#F1F1F1" height="50" rx="12.5" ry="12.5" style="stroke:#181818;stroke-width:0.5;" width="68" x="277" y="435"/><line style="stroke:#181818;stroke-width:0.5;" x1="277" x2="345" y1="461.4883" y2="461.4883"/><text fill="#000000" font-family="sans-serif" font-size="14" lengthAdjust="spacing" textLength="48" x="287" y="453.5352">Locked</text></g><ellipse cx="926" cy="67" fill="#222222" rx="10" ry="10" style="stroke:#222222;stroke-width:1.0;"/><g id="WaterPump.Off"><rect fill="#F1F1F1" height="50" rx="12.5" ry="12.5" style="stroke:#181818;stroke-width:0.5;" width="50" x="915" y="177"/><line style="stroke:#181818;stroke-width:0.5;" x1="915" x2="965" y1="203.4883" y2="203.4883"/><text fill="#000000" font-family="sans-serif" font-size="14" lengthAdjust="spacing" textLength="21" x="929.5" y="195.5352">Off</text></g><g id="WaterPump.Pumping"><rect fill="#F1F1F1" height="50" rx="12.5" ry="12.5" style="stroke:#181818;stroke-width:0.5;" width="81" x="837.5" y="306"/><line style="stroke:#181818;stroke-width:0.5;" x1="837.5" x2="918.5" y1="332.4883" y2="332.4883"/><text fill="#000000" font-family="sans-serif" font-size="14" lengthAdjust="spacing" textLength="61" x="847.5" y="324.5352">Pumping</text></g><ellipse cx="1428" cy="67" fill="#222222" rx="10" ry="10" style="stroke:#222222;stroke-width:1.0;"/><g id="SprayArm.Idle"><rect fill="#F1F1F1" height="50" rx="12.5" ry="12.5" style="stroke:#181818;stroke-width:0.5;" width="50" x="1415" y="177"/><line style="stroke:#181818;stroke-width:0.5;" x1="1415" x2="1465" y1="203.4883" y2="203.4883"/><text fill="#000000" font-family="sans-serif" font-size="14" lengthAdjust="spacing" textLength="25" x="1427.5" y="195.5352">Idle</text></g><g id="SprayArm.Rotating"><rect fill="#F1F1F1" height="50" rx="12.5" ry="12.5" style="stroke:#181818;stroke-width:0.5;" width="78" x="1339" y="306"/><line style="stroke:#181818;stroke-width:0.5;" x1="1339" x2="1417" y1="332.4883" y2="332.4883"/><text fill="#000000" font-family="sans-serif" font-size="14" lengthAdjust="spacing" textLength="58" x="1349" y="324.5352">Rotating</text></g><ellipse cx="1066" cy="67" fill="#222222" rx="10" ry="10" style="stroke:#222222;stroke-width:1.0;"/><g id="Heater.Heating"><rect fill="#F1F1F1" height="50" rx="12.5" ry="12.5" style="stroke:#181818;stroke-width:0.5;" width="73" x="1111.5" y="42"/><line style="stroke:#181818;stroke-width:0.5;" x1="1111.5" x2="1184.5" y1="68.4883" y2="68.4883"/><text fill="#000000" font-family="sans-serif" font-size="14" lengthAdjust="spacing" textLength="53" x="1121.5" y="60.5352">Heating</text></g><ellipse cx="616" cy="202" fill="#222222" rx="10" ry="10" style="stroke:#222222;stroke-width:1.0;"/><ellipse cx="1594" cy="67" fill="#222222" rx="10" ry="10" style="stroke:#222222;stroke-width:1.0;"/><g id="ControlPanel.Running"><rect fill="#F1F1F1" height="50" rx="12.5" ry="12.5" style="stroke:#181818;stroke-width:0.5;" width="78" x="1679" y="42"/><line style="stroke:#181818;stroke-width:0.5;" x1="1679" x2="1757" y1="68.4883" y2="68.4883"/><text fill="#000000" font-family="sans-serif" font-size="14" lengthAdjust="spacing" textLength="58" x="1689" y="60.5352">Running</text></g><g id="ControlPanel.Paused"><rect fill="#F1F1F1" height="50" rx="12.5" ry="12.5" style="stroke:#181818;stroke-width:0.5;" width="69" x="1782.5" y="177"/><line style="stroke:#181818;stroke-width:0.5;" x1="1782.5" x2="1851.5" y1="203.4883" y2="203.4883"/><text fill="#000000" font-family="sans-serif" font-size="14" lengthAdjust="spacing" textLength="49" x="1792.5" y="195.5352">Paused</text></g><g id="ControlPanel.Completed"><rect fill="#F1F1F1" height="50" rx="12.5" ry="12.5" style="stroke:#181818;stroke-width:0.5;" width="95" x="1584.5" y="177"/><line style="stroke:#181818;stroke-width:0.5;" x1="1584.5" x2="1679.5" y1="203.4883" y2="203.4883"/><text fill="#000000" font-family="sans-serif" font-size="14" lengthAdjust="spacing" textLength="75" x="1594.5" y="195.5352">Completed</text></g><!--link *start*DishwasherDoor to Open--><g id="link_*start*DishwasherDoor_Open"><path d="M257,77.14 C257,97.39 257,140.59 257,170.53 " fill="none" id="*start*DishwasherDoor-to-Open" style="stroke:#181818;stroke-width:1.0;"/><polygon fill="#181818" points="257,176.53,261,167.53,257,171.53,253,167.53,257,176.53" style="stroke:#181818;stroke-width:1.0;"/></g><!--link Open to Closed--><g id="link_Open_Closed"><path d="M285.9,202.21 C327.61,202.85 403.55,211 439,259 C466.09,295.68 397.7347,314.8111 351.5847,323.5711 " fill="none" id="Open-to-Closed" style="stroke:#181818;stroke-width:1.0;"/><polygon fill="#181818" points="345.69,324.69,355.2781,326.9415,350.6023,323.7576,353.7862,319.0818,345.69,324.69" style="stroke:#181818;stroke-width:1.0;"/><text fill="#000000" font-family="sans-serif" font-size="13" lengthAdjust="spacing" textLength="70" x="445.78" y="272.5684">Close Door</text></g><!--link Closed to Open--><g id="link_Closed_Open"><path d="M278.07,323.88 C251.49,317.11 216.22,303.31 199,276 C186.14,255.6 202.9856,237.6622 223.4156,223.3522 " fill="none" id="Closed-to-Open" style="stroke:#181818;stroke-width:1.0;"/><polygon fill="#181818" points="228.33,219.91,218.6636,221.7971,224.2347,222.7785,223.2533,228.3496,228.33,219.91" style="stroke:#181818;stroke-width:1.0;"/><text fill="#000000" font-family="sans-serif" font-size="13" lengthAdjust="spacing" textLength="68" x="200" y="272.5684">Open Door</text></g><!--link Closed to Open--><g id="link_Closed_Open"><path d="M301.43,305.59 C291.7,283.12 279.7245,255.4858 269.9845,232.9958 " fill="none" id="Closed-to-Open-1" style="stroke:#181818;stroke-width:1.0;"/><polygon fill="#181818" points="267.6,227.49,267.5062,237.3384,269.5871,232.0782,274.8473,234.1591,267.6,227.49" style="stroke:#181818;stroke-width:1.0;"/><text fill="#000000" font-family="sans-serif" font-size="13" lengthAdjust="spacing" textLength="124" x="288.79" y="272.5684">Dispense Detergent</text></g><!--link Open to Closed--><g id="link_Open_Closed"><path d="M228.05,204.71 C168.85,209.29 42.74,225.14 83,276 C106.96,306.27 214.3899,320.6822 272.1099,326.4622 " fill="none" id="Open-to-Closed-1" style="stroke:#181818;stroke-width:1.0;"/><polygon fill="#181818" points="278.08,327.06,269.5233,322.1831,273.1049,326.5618,268.7262,330.1433,278.08,327.06" style="stroke:#181818;stroke-width:1.0;"/><text fill="#000000" font-family="sans-serif" font-size="13" lengthAdjust="spacing" textLength="102" x="84" y="272.5684">Close Dispenser</text></g><!--link Closed to Locked--><g id="link_Closed_Locked"><path d="M278.47,356.45 C269.07,365.23 260.04,375.97 255,388 C247.29,406.39 256.3909,420.1707 272.1809,433.2607 " fill="none" id="Closed-to-Locked" style="stroke:#181818;stroke-width:1.0;"/><polygon fill="#181818" points="276.8,437.09,272.4241,428.2666,272.9507,433.8989,267.3184,434.4255,276.8,437.09" style="stroke:#181818;stroke-width:1.0;"/><text fill="#000000" font-family="sans-serif" font-size="13" lengthAdjust="spacing" textLength="65" x="256" y="401.5684">Lock Door</text></g><!--link Locked to Closed--><g id="link_Locked_Closed"><path d="M319.3,434.56 C322.01,425.4 324.66,414.83 326,405 C328.23,388.63 326.3848,376.1473 322.3248,361.9973 " fill="none" id="Locked-to-Closed" style="stroke:#181818;stroke-width:1.0;"/><polygon fill="#181818" points="320.67,356.23,319.3073,365.9841,322.049,361.0361,326.997,363.7778,320.67,356.23" style="stroke:#181818;stroke-width:1.0;"/><text fill="#000000" font-family="sans-serif" font-size="13" lengthAdjust="spacing" textLength="79" x="327.69" y="401.5684">Unlock Door</text></g><!--link *start*WaterPump to Off--><g id="link_*start*WaterPump_Off"><path d="M926.4,77.47 C927.06,91.41 928.52,118.27 931,141 C932.28,152.73 933.2267,159.753 934.9367,170.613 " fill="none" id="*start*WaterPump-to-Off" style="stroke:#181818;stroke-width:1.0;"/><polygon fill="#181818" points="935.87,176.54,938.4214,167.0274,935.0923,171.6009,930.5188,168.2717,935.87,176.54" style="stroke:#181818;stroke-width:1.0;"/></g><!--link Off to Pumping--><g id="link_Off_Pumping"><path d="M928.05,227.49 C917.07,249.98 903.5104,277.7273 892.5504,300.1973 " fill="none" id="Off-to-Pumping" style="stroke:#181818;stroke-width:1.0;"/><polygon fill="#181818" points="889.92,305.59,897.4607,299.2545,892.112,301.0961,890.2704,295.7474,889.92,305.59" style="stroke:#181818;stroke-width:1.0;"/><text fill="#000000" font-family="sans-serif" font-size="13" lengthAdjust="spacing" textLength="68" x="911.86" y="272.5684">Start Pump</text></g><!--link Pumping to Off--><g id="link_Pumping_Off"><path d="M843.99,305.52 C829.6,292.06 818.17,274.9 828,259 C846.86,228.49 882.0944,215.4347 908.9144,209.0247 " fill="none" id="Pumping-to-Off" style="stroke:#181818;stroke-width:1.0;"/><polygon fill="#181818" points="914.75,207.63,905.0667,205.8317,909.887,208.7923,906.9263,213.6125,914.75,207.63" style="stroke:#181818;stroke-width:1.0;"/><text fill="#000000" font-family="sans-serif" font-size="13" lengthAdjust="spacing" textLength="67" x="829" y="272.5684">Stop Pump</text></g><!--link *start*SprayArm to Idle--><g id="link_*start*SprayArm_Idle"><path d="M1428.5,77.46 C1429.28,91.39 1430.89,118.23 1433,141 C1434.08,152.7 1434.8421,159.6831 1436.1521,170.5531 " fill="none" id="*start*SprayArm-to-Idle" style="stroke:#181818;stroke-width:1.0;"/><polygon fill="#181818" points="1436.87,176.51,1439.7644,167.0961,1436.2718,171.5459,1431.8219,168.0533,1436.87,176.51" style="stroke:#181818;stroke-width:1.0;"/></g><!--link Idle to Rotating--><g id="link_Idle_Rotating"><path d="M1428.05,227.49 C1417.07,249.98 1403.5104,277.7273 1392.5504,300.1973 " fill="none" id="Idle-to-Rotating" style="stroke:#181818;stroke-width:1.0;"/><polygon fill="#181818" points="1389.92,305.59,1397.4607,299.2545,1392.112,301.0961,1390.2704,295.7474,1389.92,305.59" style="stroke:#181818;stroke-width:1.0;"/><text fill="#000000" font-family="sans-serif" font-size="13" lengthAdjust="spacing" textLength="86" x="1411.86" y="272.5684">Start Rotation</text></g><!--link Rotating to Idle--><g id="link_Rotating_Idle"><path d="M1338.77,310.61 C1317.23,297.22 1297.24,278.39 1310,259 C1333.24,223.69 1378.0023,211.4786 1408.7723,206.6586 " fill="none" id="Rotating-to-Idle" style="stroke:#181818;stroke-width:1.0;"/><polygon fill="#181818" points="1414.7,205.73,1405.1894,203.171,1409.7602,206.5038,1406.4275,211.0746,1414.7,205.73" style="stroke:#181818;stroke-width:1.0;"/><text fill="#000000" font-family="sans-serif" font-size="13" lengthAdjust="spacing" textLength="85" x="1311" y="272.5684">Stop Rotation</text></g><!--link *start*Heater to Off--><g id="link_*start*Heater_Off"><path d="M1060.5,75.57 C1052.17,86.42 1035.29,106.14 1016,116 C998.3,125.04 987.48,111.53 972,124 C955.88,136.99 949.1419,153.6443 945.1319,170.9843 " fill="none" id="*start*Heater-to-Off" style="stroke:#181818;stroke-width:1.0;"/><polygon fill="#181818" points="943.78,176.83,949.7049,168.9627,944.9066,171.9586,941.9107,167.1602,943.78,176.83" style="stroke:#181818;stroke-width:1.0;"/></g><!--link Off to Heating--><g id="link_Off_Heating"><path d="M965.21,197.85 C1000.96,192.2 1066.76,177.35 1109,141 C1123.92,128.16 1131.8549,113.748 1138.0449,97.918 " fill="none" id="Off-to-Heating" style="stroke:#181818;stroke-width:1.0;"/><polygon fill="#181818" points="1140.23,92.33,1133.2271,99.2553,1138.4091,96.9866,1140.6777,102.1687,1140.23,92.33" style="stroke:#181818;stroke-width:1.0;"/><text fill="#000000" font-family="sans-serif" font-size="13" lengthAdjust="spacing" textLength="96" x="1124.76" y="137.5684">Turn On Heater</text></g><!--link Heating to Off--><g id="link_Heating_Off"><path d="M1126.94,92.46 C1117.79,101.44 1106.33,110.7 1094,116 C1055.89,132.39 1037.54,104.35 1001,124 C979.22,135.71 965.5493,153.6692 955.1893,171.5392 " fill="none" id="Heating-to-Off" style="stroke:#181818;stroke-width:1.0;"/><polygon fill="#181818" points="952.18,176.73,960.1545,170.9501,954.6878,172.4044,953.2335,166.9376,952.18,176.73" style="stroke:#181818;stroke-width:1.0;"/><text fill="#000000" font-family="sans-serif" font-size="13" lengthAdjust="spacing" textLength="98" x="1002" y="137.5684">Turn Off Heater</text></g><!--link *start*DetergentDispenser to Closed--><g id="link_*start*DetergentDispenser_Closed"><path d="M609.8,210.15 C596.19,225.29 561.97,260.46 525,276 C464.33,301.5 394.6202,316.116 351.7502,323.616 " fill="none" id="*start*DetergentDispenser-to-Closed" style="stroke:#181818;stroke-width:1.0;"/><polygon fill="#181818" points="345.84,324.65,355.3947,327.0392,350.7652,323.7883,354.016,319.1589,345.84,324.65" style="stroke:#181818;stroke-width:1.0;"/></g><!--link *start*ControlPanel to Idle--><g id="link_*start*ControlPanel_Idle"><path d="M1588.58,75.74 C1580.36,86.8 1563.6,106.79 1544,116 C1515.66,129.32 1499.22,105.44 1474,124 C1457.05,136.47 1449.8402,153.453 1445.5302,171.013 " fill="none" id="*start*ControlPanel-to-Idle" style="stroke:#181818;stroke-width:1.0;"/><polygon fill="#181818" points="1444.1,176.84,1450.13,169.0529,1445.2918,171.9841,1442.3606,167.146,1444.1,176.84" style="stroke:#181818;stroke-width:1.0;"/></g><!--link Idle to Running--><g id="link_Idle_Running"><path d="M1461.72,176.66 C1479.29,158.75 1505.69,135.59 1534,124 C1570.35,109.12 1584.23,126.75 1622,116 C1641.54,110.44 1656.5599,103.7696 1673.4399,94.6596 " fill="none" id="Idle-to-Running" style="stroke:#181818;stroke-width:1.0;"/><polygon fill="#181818" points="1678.72,91.81,1668.9001,92.5644,1674.3199,94.1847,1672.6996,99.6045,1678.72,91.81" style="stroke:#181818;stroke-width:1.0;"/><text fill="#000000" font-family="sans-serif" font-size="13" lengthAdjust="spacing" textLength="67" x="1535" y="137.5684">Start Cycle</text></g><!--link Running to Paused--><g id="link_Running_Paused"><path d="M1728.37,92.45 C1735.18,107.19 1744.87,125.95 1756,141 C1765.45,153.78 1773.2804,162.2589 1784.2904,172.5689 " fill="none" id="Running-to-Paused" style="stroke:#181818;stroke-width:1.0;"/><polygon fill="#181818" points="1788.67,176.67,1784.8347,167.5986,1785.0204,173.2524,1779.3665,173.438,1788.67,176.67" style="stroke:#181818;stroke-width:1.0;"/><text fill="#000000" font-family="sans-serif" font-size="13" lengthAdjust="spacing" textLength="74" x="1757" y="137.5684">Pause Cycle</text></g><!--link Paused to Running--><g id="link_Paused_Running"><path d="M1832.21,176.54 C1840.02,160.57 1846.01,139.83 1836,124 C1818.85,96.88 1790.4039,84.1892 1763.2039,76.8692 " fill="none" id="Paused-to-Running" style="stroke:#181818;stroke-width:1.0;"/><polygon fill="#181818" points="1757.41,75.31,1765.0613,81.5114,1762.2382,76.6094,1767.1403,73.7863,1757.41,75.31" style="stroke:#181818;stroke-width:1.0;"/><text fill="#000000" font-family="sans-serif" font-size="13" lengthAdjust="spacing" textLength="87" x="1842.08" y="137.5684">Resume Cycle</text></g><!--link Running to Completed--><g id="link_Running_Completed"><path d="M1678.59,84.58 C1653.03,96.22 1623.2,111.83 1616,124 C1606.54,139.98 1609.274,155.2005 1616.144,171.1305 " fill="none" id="Running-to-Completed" style="stroke:#181818;stroke-width:1.0;"/><polygon fill="#181818" points="1618.52,176.64,1618.6289,166.7917,1616.54,172.0488,1611.283,169.9598,1618.52,176.64" style="stroke:#181818;stroke-width:1.0;"/><text fill="#000000" font-family="sans-serif" font-size="13" lengthAdjust="spacing" textLength="98" x="1617" y="137.5684">Complete Cycle</text></g><!--link Completed to Idle--><g id="link_Completed_Idle"><path d="M1584.22,202 C1546.62,202 1501.69,202 1471.5,202 " fill="none" id="Completed-to-Idle" style="stroke:#181818;stroke-width:1.0;"/><polygon fill="#181818" points="1465.5,202,1474.5,206,1470.5,202,1474.5,198,1465.5,202" style="stroke:#181818;stroke-width:1.0;"/><text fill="#000000" font-family="sans-serif" font-size="13" lengthAdjust="spacing" textLength="83" x="1483.25" y="195.5684">Reset System</text></g><!--SRC=[XPB1QW8n48Rl-nI35w7W2tWebFNGGa7HbXvA3q6pAjrDbYHBaT9tR_9FucPTRRqucV-RsN-IcTBYQ0zVmXwaeONMXahTj5f9vGhhX9CqkG0c96nMX9hlWlpl_Uw3PhDxMhPI8H42PCfQMxcZEGTe0o3c0_Aijvz0Gj0JCJreyghg0PDrmHVd_0VzfoYczERdCBJgcdOyNQzXC1n1NinKLJnILU4SaAFQ-szjd30EPm19Y4K0TCiwp6nQ8qxqO9gnbxC4ApW5RkZaQLTB94A0p5hxyjmC9pG_mbbDnSdIcOAjHucB67dYF0n5vE-B2H1xUUcCegMAPO2Is5yEGpwC5Bmif0_ttaJOC_-KzfgnAn2lPihtjKF7l2utDYSLzMt-tkJq3JPUQkMChcabbAp7bWSopCOCy_- -SwTK_ipbQHkHf60pHSSE4MHG58QTrj9sZRpHAWnG-tl0l37Eq5xELiitb8us9-jauo_b5m00]--></g></svg>